<svg width="472" height="539" viewBox="0 0 472 539" fill="none" xmlns="http://www.w3.org/2000/svg">
<path d="M147.027 0C297.379 0 355.275 45.7101 355.306 100.058C310.76 70.121 254.857 64.2731 186.705 64.2731H64.8271V30.1132C64.8271 13.4816 78.3317 0 94.9863 0H147.027Z" fill="#5CFF94"/>
<path d="M65.2427 64.0122V441.849H0.724304V128.531C0.724304 92.8991 29.6112 64.0122 65.2427 64.0122Z" fill="#5CFF94"/>
<path d="M448.146 190.314C432.511 159.956 411.978 137.262 386.525 119.181C361.071 101.101 339.657 87.9569 351.376 96.2804C435.186 176.526 440.911 352.775 341.512 425.502C260.546 495.853 98.8897 469.94 0.724792 474.493L64.0936 538.199C166.167 536.972 303.788 552.523 387.536 481.597C473.185 421.471 494.278 279.772 448.154 190.314H448.146Z" fill="#5CFF94"/>
<path d="M312.451 138.211C317.824 138.211 322.177 143.255 322.177 149.478V191.463C322.177 197.687 317.824 202.73 312.451 202.73H130.331C124.959 202.73 120.605 197.687 120.605 191.463V149.478C120.605 143.255 124.959 138.211 130.331 138.211H312.451Z" fill="#5CFF94"/>
<path d="M312.451 327.015C317.824 327.015 322.177 332.058 322.177 338.282V380.267C322.177 386.49 317.824 391.534 312.451 391.534H130.331C124.959 391.534 120.605 386.49 120.605 380.267V338.282C120.605 332.058 124.959 327.015 130.331 327.015H312.451Z" fill="#5CFF94"/>
<path d="M173.65 245.98V286.517C173.65 290.77 170.201 294.227 165.939 294.227H129.618C125.364 294.227 121.908 290.778 121.908 286.517V245.98C121.908 241.726 125.357 238.27 129.618 238.27H165.939C170.193 238.27 173.65 241.718 173.65 245.98Z" fill="#5CFF94"/>
<path d="M276.332 246.175V286.49C276.332 290.721 273.38 294.158 269.733 294.158H211.38C207.739 294.158 204.78 290.728 204.78 286.49V246.175C204.78 241.945 207.732 238.507 211.38 238.507H269.733C273.374 238.507 276.332 241.937 276.332 246.175Z" fill="#5CFF94"/>
</svg>
