<?xml version="1.0" encoding="utf-8"?>
<!-- Generator: Adobe Illustrator 17.0.0, SVG Export Plug-In . SVG Version: 6.00 Build 0)  -->
<!DOCTYPE svg PUBLIC "-//W3C//DTD SVG 1.1//EN" "http://www.w3.org/Graphics/SVG/1.1/DTD/svg11.dtd">
<svg version="1.1" id="Layer_1" xmlns="http://www.w3.org/2000/svg" xmlns:xlink="http://www.w3.org/1999/xlink" x="0px" y="0px"
	 width="612px" height="792px" viewBox="0 0 612 792" enable-background="new 0 0 612 792" xml:space="preserve">
<g id="XMLID_2_">
	<path id="XMLID_4_" fill="#5CFF95" d="M96.462,90h306c4.064,0,7.172,1.076,10.16,4.064s4.064,6.096,4.064,10.16v375.328h83.672
		c11.236,0,20.44,5.14,25.46,16.376c5.02,11.236,4.064,20.44-4.064,29.524L382.141,692.796c-5.14,6.096-12.192,9.204-21.396,9.204
		c-9.204,0-16.376-3.108-21.396-9.204L200.573,525.572c-7.172-9.204-9.204-19.364-4.064-29.524
		c5.14-11.236,13.268-16.376,25.46-16.376h83.672V201.164H166.866c-4.064,0-8.128-2.032-11.236-5.14l-69.328-83.672
		c-4.064-4.064-4.064-9.204-2.032-14.224C87.377,93.108,91.441,90,96.462,90z"/>
</g>
</svg>
