<svg viewBox="0 0 169 157" fill="none" xmlns="http://www.w3.org/2000/svg">
<path d="M13.3343 136.517L16.973 126.9C17.3263 125.957 17.6116 125.187 17.8263 124.589C18.041 123.993 18.2036 123.501 18.317 123.117C18.429 122.732 18.5023 122.424 18.5396 122.192C18.577 121.961 18.597 121.74 18.597 121.528C18.597 121.067 18.429 120.763 18.093 120.619C17.757 120.475 17.085 120.401 16.077 120.401V119.247H24.0263V120.401C22.477 120.401 21.4036 121.181 20.8076 122.741L13.4463 141.773H11.3756L4.68631 124.908C4.31298 124.003 3.97698 123.261 3.67831 122.683C3.37964 122.105 3.06364 121.648 2.72764 121.312C2.39164 120.975 2.02231 120.744 1.62098 120.619C1.22098 120.493 0.748975 120.431 0.207642 120.431V119.247H10.7876V120.431C10.3023 120.449 9.89698 120.48 9.57031 120.517C9.24364 120.556 8.98631 120.619 8.79964 120.705C8.61431 120.792 8.48364 120.907 8.40898 121.052C8.33431 121.196 8.29698 121.375 8.29698 121.585C8.29698 121.856 8.34364 122.173 8.43698 122.539C8.52898 122.905 8.67031 123.348 8.85564 123.868L13.3343 136.517Z" fill="#ffffff"/>
<path d="M33.7121 139.559H25.9348V138.661C26.4295 138.646 26.8241 138.597 27.1228 138.514C27.4201 138.433 27.6495 138.278 27.8081 138.054C27.9681 137.829 28.0775 137.51 28.1361 137.098C28.1935 136.686 28.2228 136.127 28.2228 135.423V126.387C28.2228 125.758 28.1975 125.238 28.1468 124.826C28.0948 124.413 27.9975 124.087 27.8521 123.847C27.7068 123.609 27.5001 123.439 27.2308 123.342C26.9628 123.245 26.6028 123.181 26.1535 123.15V122.251H33.4948V123.15C33.0441 123.181 32.6841 123.245 32.4161 123.342C32.1468 123.439 31.9401 123.609 31.7948 123.847C31.6495 124.087 31.5508 124.413 31.5015 124.826C31.4495 125.238 31.4241 125.758 31.4241 126.387V135.423C31.4241 136.127 31.4495 136.686 31.5015 137.098C31.5508 137.51 31.6601 137.829 31.8268 138.054C31.9948 138.278 32.2268 138.433 32.5241 138.514C32.8215 138.597 33.2175 138.646 33.7121 138.661V139.559Z" fill="#ffffff"/>
<path d="M51.5725 139.559H36.5645V138.661C37.0431 138.646 37.4351 138.601 37.7405 138.526C38.0458 138.45 38.2778 138.323 38.4378 138.143C38.5965 137.963 38.7058 137.709 38.7645 137.379C38.8231 137.049 38.8511 136.622 38.8511 136.098V125.713C38.8511 125.189 38.8258 124.765 38.7751 124.443C38.7245 124.121 38.6258 123.866 38.4818 123.679C38.3365 123.491 38.1285 123.365 37.8605 123.297C37.5925 123.23 37.2405 123.181 36.8031 123.15V122.251H44.3191V123.15C43.8258 123.166 43.4298 123.21 43.1325 123.286C42.8338 123.361 42.6045 123.497 42.4458 123.69C42.2858 123.886 42.1805 124.155 42.1298 124.499C42.0791 124.845 42.0538 125.301 42.0538 125.871V135.289C42.0538 135.918 42.1151 136.431 42.2391 136.829C42.3618 137.226 42.5765 137.533 42.8818 137.75C43.1858 137.967 43.5925 138.117 44.1018 138.199C44.6085 138.282 45.2418 138.323 45.9965 138.323C46.8391 138.323 47.5431 138.271 48.1098 138.166C48.6751 138.061 49.1511 137.862 49.5365 137.57C49.9205 137.278 50.2298 136.885 50.4618 136.39C50.6938 135.895 50.8898 135.251 51.0498 134.457H51.9218L51.5725 139.559Z" fill="#ffffff"/>
<path d="M69.3256 139.559H54.3176V138.661C54.7963 138.646 55.1883 138.601 55.4936 138.526C55.799 138.45 56.031 138.323 56.191 138.143C56.3496 137.963 56.459 137.709 56.5176 137.379C56.5763 137.049 56.6043 136.622 56.6043 136.098V125.713C56.6043 125.189 56.579 124.765 56.5283 124.443C56.4776 124.121 56.379 123.866 56.235 123.679C56.0896 123.491 55.8816 123.365 55.6136 123.297C55.3456 123.23 54.9936 123.181 54.5563 123.15V122.251H62.0723V123.15C61.579 123.166 61.183 123.21 60.8856 123.286C60.587 123.361 60.3576 123.497 60.199 123.69C60.039 123.886 59.9336 124.155 59.883 124.499C59.8323 124.845 59.807 125.301 59.807 125.871V135.289C59.807 135.918 59.8683 136.431 59.9923 136.829C60.115 137.226 60.3296 137.533 60.635 137.75C60.939 137.967 61.3456 138.117 61.855 138.199C62.3616 138.282 62.995 138.323 63.7496 138.323C64.5923 138.323 65.2963 138.271 65.863 138.166C66.4283 138.061 66.9043 137.862 67.2896 137.57C67.6736 137.278 67.983 136.885 68.215 136.39C68.447 135.895 68.643 135.251 68.803 134.457H69.675L69.3256 139.559Z" fill="#ffffff"/>
<path d="M76.5571 132.973H81.7411L79.2371 126.163H79.1491L76.5571 132.973ZM82.2211 134.321H76.0558C75.3745 135.911 75.0331 137.012 75.0331 137.627C75.0331 138.076 75.1958 138.36 75.5225 138.48C75.8491 138.6 76.3398 138.66 76.9931 138.66V139.559H71.0251V138.66C71.3731 138.615 71.6745 138.556 71.9278 138.48C72.1825 138.405 72.4078 138.3 72.6038 138.165C72.7998 138.031 72.9705 137.855 73.1158 137.637C73.2611 137.42 73.3985 137.153 73.5291 136.84L79.2585 122.027H80.8705L86.0758 135.155C86.3811 135.919 86.6385 136.517 86.8491 136.952C87.0598 137.387 87.2851 137.72 87.5251 137.952C87.7651 138.184 88.0398 138.345 88.3531 138.436C88.6651 138.525 89.0678 138.593 89.5611 138.637V139.559H81.3278V138.637C82.0238 138.608 82.5265 138.533 82.8305 138.413C83.1358 138.293 83.2878 138.053 83.2878 137.693C83.2878 137.484 83.2371 137.213 83.1358 136.884C83.0345 136.555 82.8958 136.151 82.7211 135.671L82.2211 134.321Z" fill="#ffffff"/>
<path d="M96.4881 130.231H97.9041C99.2694 130.231 100.289 129.958 100.964 129.411C101.64 128.863 101.977 127.962 101.977 126.702C101.977 125.743 101.693 124.971 101.128 124.387C100.561 123.803 99.7774 123.511 98.7748 123.511H96.8801C96.6188 123.511 96.4881 123.638 96.4881 123.893V130.231ZM105.375 126.59C105.375 127.834 105.027 128.875 104.329 129.714C103.632 130.554 102.521 131.115 100.997 131.401L106.051 137.379C106.399 137.799 106.812 138.117 107.292 138.335C107.772 138.551 108.257 138.661 108.751 138.661V139.559H103.589L98.1868 132.726C97.8241 132.277 97.5081 131.974 97.2388 131.817C96.9708 131.659 96.7201 131.579 96.4881 131.579V135.986C96.4881 136.539 96.5241 136.994 96.5961 137.345C96.6694 137.698 96.8148 137.971 97.0321 138.166C97.2494 138.361 97.5668 138.491 97.9801 138.559C98.3934 138.627 98.9494 138.661 99.6468 138.661V139.559H90.9988V138.661C91.4774 138.661 91.8668 138.627 92.1641 138.559C92.4614 138.491 92.6948 138.365 92.8614 138.178C93.0281 137.99 93.1401 137.727 93.1988 137.39C93.2574 137.053 93.2854 136.622 93.2854 136.098V125.713C93.2854 125.189 93.2641 124.766 93.2201 124.443C93.1761 124.121 93.0828 123.866 92.9374 123.679C92.7921 123.491 92.5854 123.365 92.3161 123.297C92.0468 123.23 91.6881 123.181 91.2374 123.15V122.251H98.7748C100.88 122.251 102.507 122.634 103.655 123.398C104.801 124.162 105.375 125.226 105.375 126.59Z" fill="#ffffff"/>
<path d="M115.548 129.984C116.477 129.984 117.225 129.953 117.791 129.893C118.357 129.835 118.797 129.711 119.109 129.524C119.421 129.336 119.643 129.063 119.773 128.703C119.904 128.344 120.005 127.857 120.079 127.241H120.885V133.828H120.079C119.992 133.228 119.875 132.749 119.729 132.389C119.584 132.029 119.352 131.756 119.033 131.569C118.713 131.381 118.281 131.263 117.737 131.209C117.192 131.157 116.463 131.131 115.548 131.131V135.761C115.548 136.24 115.609 136.645 115.733 136.975C115.856 137.304 116.063 137.569 116.353 137.772C116.644 137.975 117.029 138.117 117.508 138.2C117.988 138.283 118.576 138.323 119.272 138.323C120.1 138.323 120.801 138.264 121.375 138.144C121.948 138.024 122.424 137.813 122.801 137.515C123.179 137.215 123.484 136.813 123.716 136.312C123.948 135.809 124.144 135.176 124.305 134.412H125.176L124.828 139.56H110.059V138.66C110.537 138.645 110.929 138.6 111.235 138.525C111.54 138.451 111.772 138.323 111.932 138.144C112.091 137.964 112.2 137.709 112.259 137.379C112.317 137.049 112.345 136.623 112.345 136.097V125.713C112.345 125.189 112.32 124.765 112.269 124.444C112.219 124.121 112.12 123.867 111.976 123.679C111.831 123.492 111.623 123.364 111.355 123.297C111.085 123.229 110.735 123.181 110.297 123.151V122.252H124.065L124.217 126.657H123.28C123.193 126.028 123.056 125.508 122.867 125.096C122.679 124.684 122.416 124.353 122.083 124.105C121.748 123.859 121.317 123.687 120.787 123.589C120.256 123.492 119.607 123.444 118.837 123.444H116.376C115.997 123.444 115.765 123.492 115.679 123.589C115.591 123.687 115.548 123.915 115.548 124.275V129.984Z" fill="#ffffff"/>
<path d="M132.495 132.973H137.679L135.175 126.163H135.087L132.495 132.973ZM138.159 134.321H131.993C131.312 135.911 130.971 137.012 130.971 137.627C130.971 138.076 131.133 138.36 131.46 138.48C131.787 138.6 132.277 138.66 132.931 138.66V139.559H126.963V138.66C127.311 138.615 127.612 138.556 127.865 138.48C128.12 138.405 128.345 138.3 128.541 138.165C128.737 138.031 128.908 137.855 129.053 137.637C129.199 137.42 129.336 137.153 129.467 136.84L135.196 122.027H136.808L142.013 135.155C142.319 135.919 142.576 136.517 142.787 136.952C142.997 137.387 143.223 137.72 143.463 137.952C143.703 138.184 143.977 138.345 144.291 138.436C144.603 138.525 145.005 138.593 145.499 138.637V139.559H137.265V138.637C137.961 138.608 138.464 138.533 138.768 138.413C139.073 138.293 139.225 138.053 139.225 137.693C139.225 137.484 139.175 137.213 139.073 136.884C138.972 136.555 138.833 136.151 138.659 135.671L138.159 134.321Z" fill="#ffffff"/>
<path d="M167.728 141.788H148.444V140.634C149.06 140.614 149.564 140.556 149.956 140.459C150.348 140.363 150.645 140.2 150.852 139.968C151.056 139.738 151.197 139.411 151.271 138.987C151.345 138.563 151.383 138.015 151.383 137.34V123.998C151.383 123.324 151.351 122.78 151.285 122.366C151.22 121.952 151.093 121.626 150.908 121.383C150.72 121.143 150.455 120.979 150.109 120.892C149.764 120.807 149.312 120.744 148.752 120.706V119.55H158.408V120.706C157.775 120.724 157.265 120.783 156.883 120.879C156.5 120.975 156.207 121.148 156.001 121.398C155.796 121.648 155.66 121.995 155.596 122.438C155.529 122.882 155.497 123.468 155.497 124.2V136.302C155.497 137.11 155.577 137.77 155.735 138.279C155.893 138.79 156.169 139.184 156.561 139.463C156.952 139.743 157.475 139.935 158.128 140.042C158.781 140.147 159.593 140.2 160.564 140.2C161.645 140.2 162.551 140.132 163.279 139.998C164.007 139.863 164.617 139.607 165.111 139.232C165.605 138.856 166.003 138.351 166.301 137.716C166.599 137.08 166.851 136.254 167.056 135.232H168.176L167.728 141.788Z" fill="#ffffff"/>
<path d="M18.9938 24.2996H19.5711C19.6431 24.8276 19.7818 25.3036 19.9844 25.7249C20.1871 26.1476 20.4418 26.5063 20.7498 26.7983C21.0564 27.0929 21.4098 27.3183 21.8111 27.4769C22.2111 27.6356 22.6458 27.7143 23.1138 27.7143C23.8831 27.7143 24.4924 27.5089 24.9391 27.0983C25.3858 26.6876 25.6098 26.1303 25.6098 25.4263C25.6098 25.1329 25.5658 24.8623 25.4778 24.6156C25.3884 24.3689 25.2404 24.1329 25.0324 23.9036C24.8244 23.6743 24.5471 23.4489 24.1978 23.2263C23.8498 23.0023 23.4098 22.7623 22.8791 22.5036C22.2338 22.1863 21.6938 21.8823 21.2564 21.5876C20.8204 21.2956 20.4711 20.9903 20.2111 20.6729C19.9511 20.3556 19.7658 20.0183 19.6564 19.6609C19.5484 19.3023 19.4938 18.8943 19.4938 18.4369C19.4938 17.8969 19.5791 17.3983 19.7511 16.9409C19.9218 16.4836 20.1644 16.0863 20.4764 15.7516C20.7884 15.4183 21.1578 15.1596 21.5844 14.9783C22.0111 14.7956 22.4791 14.7049 22.9884 14.7049C23.4471 14.7049 23.8724 14.7876 24.2684 14.9516C24.6631 15.1156 25.0644 15.3796 25.4698 15.7436L25.8751 14.9516H26.2338L26.4058 18.4543H25.8284C25.5791 17.4929 25.2178 16.7769 24.7444 16.3076C24.2711 15.8369 23.7018 15.6036 23.0351 15.6036C22.4004 15.6036 21.8964 15.7796 21.5218 16.1316C21.1471 16.4836 20.9604 16.9583 20.9604 17.5569C20.9604 17.8383 21.0018 18.0943 21.0844 18.3223C21.1684 18.5516 21.3031 18.7689 21.4898 18.9743C21.6778 19.1796 21.9218 19.3849 22.2244 19.5903C22.5258 19.7956 22.9004 20.0103 23.3471 20.2329C24.1164 20.6209 24.7564 20.9809 25.2671 21.3156C25.7764 21.6503 26.1831 21.9849 26.4844 22.3183C26.7858 22.6529 26.9991 23.0049 27.1231 23.3743C27.2484 23.7449 27.3111 24.1583 27.3111 24.6156C27.3111 25.2036 27.2071 25.7436 26.9991 26.2356C26.7911 26.7289 26.4991 27.1516 26.1244 27.5036C25.7511 27.8556 25.3031 28.1276 24.7831 28.3223C24.2631 28.5156 23.6911 28.6129 23.0671 28.6129C22.4738 28.6129 21.9404 28.5183 21.4671 28.3303C20.9938 28.1423 20.5124 27.8263 20.0231 27.3796L19.5871 28.2423H19.2271L18.9938 24.2996Z" fill="#ffffff"/>
<path d="M40.1538 14.8811H40.5911L40.7311 18.9304H40.1538C39.9244 17.8971 39.4831 17.0877 38.8271 16.5011C38.1724 15.9144 37.3818 15.6211 36.4551 15.6211C35.8204 15.6211 35.2538 15.7611 34.7551 16.0424C34.2551 16.3251 33.8338 16.7291 33.4911 17.2571C33.1471 17.7864 32.8844 18.4317 32.7031 19.1944C32.5204 19.9571 32.4298 20.8197 32.4298 21.7811C32.4298 23.6717 32.7778 25.1237 33.4751 26.1397C34.1724 27.1544 35.1818 27.6624 36.5018 27.6624C38.5098 27.6624 39.8004 26.4584 40.3724 24.0531H41.0124V28.4371H40.4658L40.1071 27.0451C39.0151 28.0904 37.6938 28.6131 36.1431 28.6131C35.2591 28.6131 34.4604 28.4544 33.7484 28.1371C33.0351 27.8211 32.4271 27.3717 31.9218 26.7904C31.4178 26.2091 31.0271 25.5024 30.7524 24.6691C30.4764 23.8357 30.3378 22.9091 30.3378 21.8877C30.3378 20.8197 30.4844 19.8451 30.7751 18.9651C31.0658 18.0851 31.4751 17.3277 32.0004 16.6944C32.5258 16.0611 33.1551 15.5704 33.8884 15.2237C34.6218 14.8784 35.4311 14.7051 36.3151 14.7051C36.9391 14.7051 37.5271 14.8051 38.0791 15.0037C38.6298 15.2037 39.2284 15.5264 39.8724 15.9731L40.1538 14.8811Z" fill="#ffffff"/>
<path d="M128.76 21.3941H129.868C130.908 21.3941 131.682 21.1688 132.186 20.7168C132.691 20.2648 132.943 19.5221 132.943 18.4888C132.943 17.4915 132.743 16.7795 132.342 16.3501C131.942 15.9221 131.314 15.7075 130.462 15.7075H129.026C128.848 15.7075 128.76 15.8075 128.76 16.0075V21.3941ZM134.971 18.2781C134.971 18.9008 134.883 19.4581 134.706 19.9501C134.53 20.4435 134.251 20.8608 133.871 21.1995C133.491 21.5408 132.998 21.8048 132.388 21.9928C131.78 22.1808 131.039 22.2741 130.164 22.2741H128.76V25.6715C128.76 26.1061 128.784 26.4608 128.831 26.7368C128.878 27.0128 128.976 27.2275 129.127 27.3795C129.278 27.5328 129.496 27.6341 129.783 27.6875C130.068 27.7408 130.446 27.7675 130.914 27.7675V28.4355H125.406V27.7675C125.77 27.7555 126.063 27.7195 126.287 27.6608C126.511 27.6035 126.686 27.5035 126.81 27.3621C126.935 27.2208 127.018 27.0221 127.059 26.7635C127.102 26.5048 127.123 26.1715 127.123 25.7595V17.5568C127.123 17.1448 127.104 16.8141 127.068 16.5621C127.031 16.3088 126.959 16.1101 126.85 15.9635C126.74 15.8168 126.582 15.7168 126.374 15.6635C126.164 15.6115 125.894 15.5728 125.562 15.5488V14.8808H130.462C131.896 14.8808 133.007 15.1795 133.792 15.7781C134.578 16.3768 134.971 17.2101 134.971 18.2781Z" fill="#ffffff"/>
<path d="M140.729 21.1301H141.837C142.877 21.1301 143.65 20.9155 144.154 20.4875C144.66 20.0595 144.912 19.3515 144.912 18.3661C144.912 17.4155 144.712 16.7355 144.31 16.3235C143.91 15.9128 143.282 15.7075 142.43 15.7075H140.994C140.817 15.7075 140.729 15.8075 140.729 16.0075V21.1301ZM146.94 18.2781C146.94 19.2168 146.69 19.9981 146.192 20.6195C145.692 21.2421 144.896 21.6581 143.804 21.8688L147.252 26.5515C147.533 26.9395 147.842 27.2181 148.181 27.3875C148.518 27.5581 148.922 27.6848 149.39 27.7661V28.4355H146.378L142.554 22.9075C142.42 22.7088 142.292 22.5501 142.173 22.4328C142.053 22.3155 141.928 22.2248 141.798 22.1595C141.668 22.0955 141.517 22.0541 141.345 22.0368C141.174 22.0195 140.969 22.0101 140.729 22.0101V25.6715C140.729 26.1061 140.753 26.4608 140.8 26.7368C140.846 27.0128 140.945 27.2275 141.096 27.3795C141.246 27.5328 141.465 27.6341 141.752 27.6875C142.037 27.7408 142.414 27.7661 142.882 27.7661V28.4355H137.374V27.7661C137.738 27.7555 138.032 27.7195 138.256 27.6608C138.48 27.6035 138.654 27.5035 138.778 27.3621C138.904 27.2208 138.986 27.0221 139.028 26.7635C139.07 26.5048 139.092 26.1715 139.092 25.7595V17.5568C139.092 17.1448 139.073 16.8141 139.037 16.5621C139 16.3088 138.928 16.1101 138.818 15.9635C138.709 15.8168 138.55 15.7168 138.342 15.6635C138.133 15.6115 137.862 15.5728 137.53 15.5488V14.8808H142.43C143.865 14.8808 144.976 15.1795 145.761 15.7781C146.546 16.3768 146.94 17.2101 146.94 18.2781Z" fill="#ffffff"/>
<path d="M142.226 55.7499C141.852 57.4112 141.416 59.0432 140.918 60.6405C140.427 62.2405 139.855 63.7952 139.234 65.3085C138.019 68.3379 136.499 71.1805 134.787 73.7499C133.93 75.0352 133.023 76.2565 132.066 77.4045C129.218 80.8192 125.86 83.6472 122.5 86.1632C120.234 87.8565 117.907 89.4259 115.594 91.0725C115.306 91.2779 115.018 91.4899 114.73 91.7005C112.71 93.1805 110.719 94.7725 108.858 96.5885C107.791 97.6312 107.052 98.7432 105.782 99.6605C101.807 102.533 96.0631 104.886 87.9738 107.79C88.0511 107.894 89.0444 108.001 89.1738 107.957C92.5471 106.842 95.9391 106.03 98.2964 105.245C100.051 104.659 105.612 102.353 106.627 101.311C107.644 100.265 108.678 99.2272 109.755 98.2925C110.818 97.3259 111.912 96.4152 113.014 95.5179L113.84 94.8445L114.675 94.1832C115.232 93.7432 115.791 93.3005 116.354 92.8659C118.596 91.1099 120.872 89.3899 123.128 87.6019C124.822 86.2605 126.499 84.8445 128.1 83.3165L128.502 82.9325C129.711 81.7779 130.859 80.5192 131.964 79.1952L132.687 78.2899C133.64 77.0685 134.539 75.7752 135.383 74.4219C137.87 70.3592 139.88 65.7272 141.227 60.8005C141.675 59.1605 142.059 57.4925 142.376 55.8045L142.226 55.7499Z" fill="#ffffff"/>
<path d="M111.677 101.189C110.043 102.265 108.246 99.7089 108.246 99.7089C108.246 99.7089 109.666 98.0316 111.511 97.8689C113.357 97.7063 115.077 99.3196 115.083 99.5356C115.083 99.5356 113.606 99.9183 111.677 101.189ZM112.786 96.2009C111.39 96.3236 110.11 96.8569 109.042 97.4916C107.906 98.9529 106.741 99.9049 106.106 100.368C106.95 101.448 110.171 105.162 113.135 103.21C117.209 100.526 120.329 99.7196 120.329 99.7196C120.314 99.2636 116.683 95.8569 112.786 96.2009Z" fill="#ffffff"/>
<path d="M120.184 94.0632C118.55 95.1392 116.753 92.5832 116.753 92.5832C116.753 92.5832 118.173 90.9059 120.018 90.7432C121.864 90.5805 123.584 92.1939 123.59 92.4099C123.59 92.4099 122.113 92.7925 120.184 94.0632ZM121.133 88.9112C117.236 89.2539 114.24 92.7952 114.24 92.7952C114.24 92.7952 118.034 98.1912 121.482 95.9205C125.556 93.2379 128.674 92.4312 128.674 92.4312C128.66 91.9739 125.029 88.5685 121.133 88.9112Z" fill="#ffffff"/>
<path d="M128.289 87.6627C126.934 88.584 125.437 86.3787 125.437 86.3787C125.437 86.3787 126.613 84.9373 128.146 84.8027C129.68 84.668 131.112 86.0613 131.117 86.248C131.117 86.248 129.89 86.5733 128.289 87.6627ZM129.06 82.948C127.692 83.068 126.458 83.6813 125.49 84.3493C124.593 85.6027 123.766 86.2827 123.766 86.2827C123.766 86.2827 123.71 86.1653 123.624 85.956C123.44 86.152 123.338 86.276 123.338 86.276C123.338 86.276 126.5 90.9333 129.361 88.9867C132.741 86.6867 135.332 86 135.332 86C135.318 85.6067 132.297 82.6627 129.06 82.948Z" fill="#ffffff"/>
<path d="M134.431 80.6637C133.166 81.5251 131.769 79.4651 131.769 79.4651C131.769 79.4651 132.867 78.1197 134.298 77.9931C135.73 77.8677 137.066 79.1691 137.071 79.3424C137.071 79.3424 135.926 79.6464 134.431 80.6637ZM135.474 76.1757C134.145 76.2931 132.953 76.9077 132.033 77.5597C131.479 79.0157 130.899 79.9237 130.899 79.9237C130.899 79.9237 130.631 79.6264 130.274 79.1197C130.182 79.2224 130.133 79.2824 130.133 79.2824C130.133 79.2824 133.085 83.6304 135.755 81.8131C138.911 79.6664 141.33 79.0251 141.33 79.0251C141.317 78.6584 138.497 75.9104 135.474 76.1757Z" fill="#ffffff"/>
<path d="M138.929 74.0177C137.921 74.895 136.604 73.327 136.604 73.327C136.604 73.327 137.438 72.0617 138.636 71.7844C139.833 71.5057 141.048 72.443 141.064 72.5884C141.064 72.5884 140.12 72.9817 138.929 74.0177ZM139.166 70.371C137.829 70.6804 136.706 71.575 135.945 72.347C135.681 73.2364 135.429 73.7844 135.429 73.7844C135.429 73.7844 135.268 73.655 135.025 73.4204C134.929 73.551 134.877 73.6284 134.877 73.6284C134.877 73.6284 137.658 76.9377 139.786 75.087C142.3 72.899 144.293 72.0697 144.293 72.0697C144.258 71.7617 141.694 69.7844 139.166 70.371Z" fill="#ffffff"/>
<path d="M141.587 67.2548C140.842 68.1828 139.57 67.1295 139.57 67.1295C139.57 67.1295 140.127 65.9108 141.097 65.4468C142.066 64.9815 143.183 65.5281 143.213 65.6468C143.213 65.6468 142.467 66.1588 141.587 67.2548ZM141.514 64.1721C140.607 64.6068 139.871 65.3535 139.333 66.0508C139.123 67.2055 138.825 67.9801 138.825 67.9801C138.825 67.9801 138.629 67.8481 138.349 67.6068C138.31 67.6828 138.291 67.7255 138.291 67.7255C138.291 67.7255 140.978 69.9481 142.55 67.9895C144.407 65.6735 145.982 64.5935 145.982 64.5935C145.918 64.3428 143.561 63.1908 141.514 64.1721Z" fill="#ffffff"/>
<path d="M143.172 59.2877C143.997 58.9104 144.949 59.4384 144.974 59.5451C144.974 59.5451 144.341 59.9731 143.593 60.9157C142.961 61.7144 141.874 60.7291 141.874 60.7291C141.874 60.7291 142.346 59.6651 143.172 59.2877ZM140.705 61.1611C140.686 61.1997 140.677 61.2224 140.677 61.2224C140.677 61.2224 142.97 63.3024 144.306 61.6171C145.884 59.6251 147.221 58.7211 147.221 58.7211C147.168 58.4971 145.156 57.3824 143.414 58.1784C142.458 58.6157 141.728 59.4904 141.262 60.1904C141.15 60.8797 141.01 61.3251 141.01 61.3251C141.01 61.3251 140.89 61.2704 140.705 61.1611Z" fill="#ffffff"/>
<path d="M106.988 93.7219C108.648 91.8979 109.512 90.2605 109.512 90.2605C109.657 90.3579 110.065 93.1019 109.201 95.2752C108.338 97.4499 106.606 98.4885 106.606 98.4885C106.606 98.4885 105.584 95.2659 106.988 93.7219ZM109.042 97.4912C109.794 96.5245 110.533 95.3352 111.097 93.9165C112.92 89.3285 112.06 83.5339 111.752 83.3299C111.752 83.3299 109.926 86.7872 106.422 90.6365C103.457 93.8952 105.618 100.699 105.618 100.699C105.618 100.699 105.801 100.589 106.106 100.367C105.968 100.191 105.893 100.085 105.893 100.085C105.893 100.085 107.128 98.6272 109.042 97.4912Z" fill="#ffffff"/>
<path d="M105.893 100.085C105.893 100.085 105.968 100.192 106.105 100.368C106.741 99.9037 107.906 98.9531 109.042 97.4917C107.128 98.6277 105.893 100.085 105.893 100.085Z" fill="#ffffff"/>
<path d="M115.932 85.4732C117.746 83.9332 118.756 82.4478 118.756 82.4478C118.89 82.5678 119.044 85.3572 117.986 87.3745C116.929 89.3918 115.116 90.1412 115.116 90.1412C115.116 90.1412 114.396 86.7772 115.932 85.4732ZM119.981 86.4785C122.213 82.2198 121.892 76.3305 121.605 76.0772C121.605 76.0772 119.476 79.2118 115.644 82.4638C112.401 85.2172 113.921 92.3212 113.921 92.3212C113.921 92.3212 117.749 90.7372 119.981 86.4785Z" fill="#ffffff"/>
<path d="M123.855 80.6428C124.965 79.0455 125.478 77.6975 125.478 77.6975C125.599 77.7495 126.169 79.7561 125.705 81.5068C125.242 83.2588 124.005 84.2761 124.005 84.2761C124.005 84.2761 122.917 81.9948 123.855 80.6428ZM127.355 80.4375C128.334 76.7401 127.133 72.5055 126.877 72.3935C126.877 72.3935 125.791 75.2401 123.451 78.6121C121.779 81.0215 123.154 84.8268 123.623 85.9561C123.973 85.5841 124.625 84.9455 125.49 84.3495C126.187 83.3748 126.929 82.0548 127.355 80.4375Z" fill="#ffffff"/>
<path d="M125.49 84.3496C124.625 84.9456 123.973 85.5843 123.623 85.9563C123.71 86.1643 123.766 86.2816 123.766 86.2816C123.766 86.2816 124.593 85.6029 125.49 84.3496Z" fill="#ffffff"/>
<path d="M129.947 73.8455C130.651 71.8188 130.834 70.2855 130.834 70.2855C130.964 70.2868 131.996 72.0081 131.96 73.9135C131.923 75.8201 130.956 77.3335 130.956 77.3335C130.956 77.3335 129.351 75.5601 129.947 73.8455ZM133.019 72.7055C133.096 68.6815 130.916 65.0468 130.639 65.0455C130.639 65.0455 130.255 68.2828 128.768 72.5601C127.864 75.1615 129.36 77.8268 130.274 79.1201C130.538 78.8268 131.162 78.1775 132.032 77.5601C132.518 76.2828 132.983 74.5841 133.019 72.7055Z" fill="#ffffff"/>
<path d="M132.033 77.5597C131.162 78.1771 130.538 78.8264 130.274 79.1197C130.631 79.6264 130.899 79.9237 130.899 79.9237C130.899 79.9237 131.479 79.0157 132.033 77.5597Z" fill="#ffffff"/>
<path d="M133.978 69.1648C134.368 67.3461 134.37 66.0315 134.37 66.0315C134.48 66.0088 135.514 67.2715 135.67 68.8728C135.826 70.4755 135.166 71.9101 135.166 71.9101C135.166 71.9101 133.647 70.7035 133.978 69.1648ZM136.495 67.3728C136.164 63.9901 133.982 61.3261 133.751 61.3728C133.751 61.3728 133.747 64.1501 132.922 67.9888C132.38 70.5101 134.187 72.6061 135.026 73.4195C135.196 73.1888 135.512 72.7875 135.946 72.3475C136.303 71.1448 136.684 69.3181 136.495 67.3728Z" fill="#ffffff"/>
<path d="M135.429 73.7841C135.429 73.7841 135.681 73.2361 135.945 72.3481C135.512 72.7881 135.197 73.1881 135.025 73.4201C135.268 73.6548 135.429 73.7841 135.429 73.7841Z" fill="#ffffff"/>
<path d="M137.057 63.8447C137.301 62.2753 137.241 61.1633 137.241 61.1633C137.333 61.1353 138.267 62.1153 138.475 63.4567C138.681 64.798 138.191 66.066 138.191 66.066C138.191 66.066 136.851 65.1727 137.057 63.8447ZM139.333 66.0513C139.513 65.0567 139.625 63.7807 139.423 62.4713C138.984 59.6393 137.013 57.5687 136.82 57.6273C136.82 57.6273 136.948 59.9753 136.432 63.29C136.109 65.358 137.563 66.9247 138.349 67.606C138.476 67.3527 138.812 66.7247 139.333 66.0513Z" fill="#ffffff"/>
<path d="M139.333 66.0508C138.812 66.7255 138.476 67.3521 138.349 67.6068C138.629 67.8481 138.825 67.9801 138.825 67.9801C138.825 67.9801 139.124 67.2055 139.333 66.0508Z" fill="#ffffff"/>
<path d="M139.654 58.2715C139.771 56.9688 139.655 56.0781 139.655 56.0781C139.733 56.0421 140.582 56.7128 140.837 57.7701C141.09 58.8275 140.746 59.9181 140.746 59.9181C140.746 59.9181 139.555 59.3741 139.654 58.2715ZM140.706 61.1608C140.774 61.0181 140.963 60.6408 141.262 60.1901C141.405 59.3128 141.502 58.0395 141.201 56.7888C140.665 54.5568 138.87 53.1421 138.709 53.2155C138.709 53.2155 138.953 55.0981 138.705 57.8475C138.541 59.6675 140.043 60.7675 140.706 61.1608Z" fill="#ffffff"/>
<path d="M140.706 61.1605C140.89 61.2699 141.01 61.3245 141.01 61.3245C141.01 61.3245 141.151 60.8792 141.263 60.1899C140.963 60.6405 140.774 61.0179 140.706 61.1605Z" fill="#ffffff"/>
<path d="M142.746 55.226C142.746 55.226 142.543 53.3807 143.175 52.538C143.922 51.5433 144.064 51.034 144.064 51.034C144.128 51.0713 144.306 52.3807 143.914 53.494C143.523 54.6087 142.746 55.226 142.746 55.226ZM144.466 53.902C145.292 51.5513 144.919 48.7873 144.783 48.7073C144.783 48.7073 144.482 49.7833 142.906 51.8847C141.571 53.662 142 57.558 142 57.558C142 57.558 143.64 56.254 144.466 53.902Z" fill="#ffffff"/>
<path d="M25.5658 55.7499C25.9392 57.4112 26.3752 59.0432 26.8738 60.6405C27.3645 62.2405 27.9365 63.7952 28.5578 65.3085C29.7725 68.3379 31.2925 71.1805 33.0045 73.7499C33.8618 75.0352 34.7685 76.2565 35.7258 77.4045C38.5738 80.8192 41.9312 83.6472 45.2912 86.1632C47.5578 87.8565 49.8845 89.4259 52.1978 91.0725C52.4858 91.2779 52.7738 91.4899 53.0618 91.7005C55.0818 93.1805 57.0725 94.7725 58.9338 96.5885C60.0005 97.6312 60.7392 98.7432 62.0098 99.6605C65.9845 102.533 71.7285 104.886 79.8178 107.79C79.7405 107.894 78.7472 108.001 78.6178 107.957C75.2445 106.842 71.8525 106.03 69.4952 105.245C67.7405 104.659 62.1792 102.353 61.1645 101.311C60.1472 100.265 59.1138 99.2272 58.0365 98.2925C56.9738 97.3259 55.8792 96.4152 54.7778 95.5179L53.9512 94.8445L53.1165 94.1832C52.5592 93.7432 52.0005 93.3005 51.4378 92.8659C49.1952 91.1099 46.9192 89.3899 44.6632 87.6019C42.9698 86.2605 41.2925 84.8445 39.6912 83.3165L39.2898 82.9325C38.0805 81.7779 36.9325 80.5192 35.8272 79.1952L35.1045 78.2899C34.1512 77.0685 33.2525 75.7752 32.4085 74.4219C29.9218 70.3592 27.9112 65.7272 26.5645 60.8005C26.1165 59.1605 25.7325 57.4925 25.4152 55.8045L25.5658 55.7499Z" fill="#ffffff"/>
<path d="M52.708 99.5359C52.7146 99.3199 54.4346 97.7065 56.28 97.8692C58.1266 98.0319 59.5453 99.7092 59.5453 99.7092C59.5453 99.7092 57.748 102.264 56.1146 101.189C54.1853 99.9185 52.708 99.5359 52.708 99.5359ZM47.4626 99.7199C47.4626 99.7199 50.5826 100.527 54.656 103.209C57.62 105.161 60.8413 101.448 61.6866 100.368C61.0506 99.9039 59.8853 98.9532 58.7493 97.4919C57.6813 96.8572 56.4013 96.3239 55.0053 96.2012C51.108 95.8572 47.4786 99.2639 47.4626 99.7199Z" fill="#ffffff"/>
<path d="M44.2009 92.4101C44.2076 92.1941 45.9276 90.5808 47.7729 90.7435C49.6196 90.9061 51.0383 92.5835 51.0383 92.5835C51.0383 92.5835 49.2409 95.1381 47.6076 94.0635C45.6783 92.7928 44.2009 92.4101 44.2009 92.4101ZM39.1169 92.4301C39.1169 92.4301 42.2356 93.2381 46.3089 95.9208C49.7569 98.1915 53.5516 92.7955 53.5516 92.7955C53.5516 92.7955 50.5556 89.2541 46.6583 88.9115C42.7623 88.5688 39.1316 91.9741 39.1169 92.4301Z" fill="#ffffff"/>
<path d="M36.6744 86.248C36.6811 86.0613 38.1117 84.668 39.6451 84.8027C41.1784 84.9373 42.3557 86.3787 42.3557 86.3787C42.3557 86.3787 40.8584 88.584 39.5024 87.6627C37.9011 86.5733 36.6744 86.248 36.6744 86.248ZM32.4597 86C32.4597 86 35.0504 86.6867 38.4304 88.9867C41.2917 90.9333 44.4531 86.276 44.4531 86.276C44.4531 86.276 44.3531 86.152 44.1677 85.956C44.0811 86.1653 44.0251 86.2827 44.0251 86.2827C44.0251 86.2827 43.1984 85.6027 42.301 84.3493C41.333 83.6813 40.0997 83.068 38.7317 82.948C35.4944 82.6627 32.4731 85.6067 32.4597 86Z" fill="#ffffff"/>
<path d="M30.7201 79.3429C30.7254 79.1696 32.0614 77.8669 33.4934 77.9936C34.9254 78.1189 36.0241 79.4643 36.0241 79.4643C36.0241 79.4643 34.6254 81.5243 33.3601 80.6643C31.8654 79.6469 30.7201 79.3429 30.7201 79.3429ZM26.4628 79.0243C26.4628 79.0243 28.8814 79.6656 32.0374 81.8136C34.7081 83.6309 37.6588 79.2829 37.6588 79.2829C37.6588 79.2829 37.6094 79.2216 37.5188 79.1203C37.1601 79.6269 36.8921 79.9229 36.8921 79.9229C36.8921 79.9229 36.3121 79.0163 35.7588 77.5603C34.8401 76.9083 33.6468 76.2923 32.3174 76.1763C29.2961 75.9096 26.4748 78.6576 26.4628 79.0243Z" fill="#ffffff"/>
<path d="M26.7275 72.5884C26.7435 72.4431 27.9582 71.5057 29.1555 71.7844C30.3528 72.0617 31.1875 73.3271 31.1875 73.3271C31.1875 73.3271 29.8702 74.8951 28.8622 74.0177C27.6715 72.9817 26.7275 72.5884 26.7275 72.5884ZM23.4982 72.0697C23.4982 72.0697 25.4928 72.8991 28.0062 75.0871C30.1328 76.9377 32.9142 73.6284 32.9142 73.6284C32.9142 73.6284 32.8622 73.5497 32.7662 73.4204C32.5248 73.6551 32.3622 73.7844 32.3622 73.7844C32.3622 73.7844 32.1102 73.2364 31.8462 72.3471C31.0848 71.5751 29.9622 70.6804 28.6248 70.3711C26.0968 69.7844 23.5328 71.7617 23.4982 72.0697Z" fill="#ffffff"/>
<path d="M24.5789 65.6463C24.6082 65.5276 25.7256 64.9823 26.6949 65.4463C27.6642 65.9116 28.2216 67.1303 28.2216 67.1303C28.2216 67.1303 26.9496 68.1823 26.2042 67.2543C25.3242 66.1583 24.5789 65.6463 24.5789 65.6463ZM21.8096 64.5929C21.8096 64.5929 23.3842 65.6743 25.2416 67.9889C26.8136 69.9476 29.5002 67.7249 29.5002 67.7249C29.5002 67.7249 29.4816 67.6823 29.4429 67.6063C29.1629 67.8489 28.9669 67.9796 28.9669 67.9796C28.9669 67.9796 28.6682 67.2063 28.4589 66.0503C27.9202 65.3529 27.1842 64.6063 26.2776 64.1716C24.2309 63.1903 21.8736 64.3436 21.8096 64.5929Z" fill="#ffffff"/>
<path d="M25.9169 60.7293C25.9169 60.7293 24.8302 61.7147 24.1982 60.916C23.4502 59.9733 22.8169 59.5453 22.8169 59.5453C22.8422 59.4387 23.7955 58.9107 24.6195 59.288C25.4449 59.6653 25.9169 60.7293 25.9169 60.7293ZM26.7822 61.3253C26.7822 61.3253 26.6409 60.8787 26.5289 60.1907C26.0635 59.4907 25.3329 58.616 24.3769 58.1787C22.6355 57.3813 20.6249 58.496 20.5702 58.7213C20.5702 58.7213 21.9089 59.6253 23.4862 61.616C24.8209 63.3013 27.1142 61.2213 27.1142 61.2213C27.1142 61.2213 27.1049 61.2 27.0862 61.16C26.9009 61.2707 26.7822 61.3253 26.7822 61.3253Z" fill="#ffffff"/>
<path d="M61.1852 98.488C61.1852 98.488 59.4545 97.4493 58.5905 95.276C57.7265 93.1013 58.1345 90.3573 58.2798 90.2613C58.2798 90.2613 59.1452 91.8987 60.8038 93.7213C62.2092 95.2653 61.1852 98.488 61.1852 98.488ZM61.8985 100.085C61.8985 100.085 61.8238 100.191 61.6865 100.367C61.9905 100.589 62.1732 100.699 62.1732 100.699C62.1732 100.699 64.3345 93.8947 61.3692 90.6373C57.8652 86.7867 56.0398 83.3307 56.0398 83.3307C55.7332 83.5347 54.8718 89.328 56.6958 93.9173C57.2585 95.336 57.9985 96.5253 58.7492 97.492C60.6638 98.6267 61.8985 100.085 61.8985 100.085Z" fill="#ffffff"/>
<path d="M61.8985 100.085C61.8985 100.085 61.8238 100.192 61.6865 100.368C61.0505 99.9037 59.8851 98.9531 58.7491 97.4917C60.6638 98.6277 61.8985 100.085 61.8985 100.085Z" fill="#ffffff"/>
<path d="M52.6764 90.1419C52.6764 90.1419 50.8631 89.3925 49.8057 87.3752C48.7484 85.3579 48.9004 82.5672 49.0364 82.4485C49.0364 82.4485 50.0457 83.9325 51.8604 85.4739C53.3964 86.7765 52.6764 90.1419 52.6764 90.1419ZM53.8711 92.3205C53.8711 92.3205 55.3897 85.2165 52.1471 82.4645C48.3164 79.2125 46.1857 76.0779 46.1857 76.0779C45.9004 76.3299 45.5777 82.2205 47.8097 86.4792C50.0417 90.7379 53.8711 92.3205 53.8711 92.3205Z" fill="#ffffff"/>
<path d="M43.7866 84.2756C43.7866 84.2756 42.5493 83.2583 42.0866 81.5076C41.6226 79.7556 42.192 77.7503 42.3133 77.6969C42.3133 77.6969 42.828 79.0449 43.936 80.6423C44.8746 81.9943 43.7866 84.2756 43.7866 84.2756ZM42.3013 84.3503C43.1666 84.9463 43.8186 85.5849 44.168 85.9556C44.6373 84.8263 46.0133 81.0209 44.3413 78.6129C42 75.2409 40.9146 72.3943 40.9146 72.3943C40.66 72.5049 39.4573 76.7396 40.436 80.4369C40.864 82.0543 41.604 83.3756 42.3013 84.3503Z" fill="#ffffff"/>
<path d="M42.3015 84.3496C43.1668 84.9456 43.8188 85.5843 44.1682 85.9563C44.0815 86.1643 44.0255 86.2816 44.0255 86.2816C44.0255 86.2816 43.1988 85.6029 42.3015 84.3496Z" fill="#ffffff"/>
<path d="M36.8354 77.3329C36.8354 77.3329 35.8688 75.8196 35.8314 73.9143C35.7954 72.0076 36.8274 70.2863 36.9581 70.2863C36.9581 70.2863 37.1408 71.8196 37.8448 73.8449C38.4408 75.5596 36.8354 77.3329 36.8354 77.3329ZM35.7594 77.5596C36.6301 78.1769 37.2541 78.8263 37.5181 79.1196C38.4314 77.8263 39.9274 75.1623 39.0234 72.5609C37.5368 68.2823 37.1528 65.0463 37.1528 65.0463C36.8754 65.0476 34.6954 68.6809 34.7728 72.7049C34.8088 74.5849 35.2741 76.2836 35.7594 77.5596Z" fill="#ffffff"/>
<path d="M35.7592 77.5597C36.6298 78.1771 37.2538 78.8264 37.5178 79.1197C37.1605 79.6264 36.8925 79.9237 36.8925 79.9237C36.8925 79.9237 36.3125 79.0157 35.7592 77.5597Z" fill="#ffffff"/>
<path d="M32.6264 71.9099C32.6264 71.9099 31.9651 70.4752 32.1211 68.8739C32.2784 67.2712 33.3117 66.0085 33.4211 66.0312C33.4211 66.0312 33.4237 67.3459 33.8144 69.1645C34.1437 70.7032 32.6264 71.9099 32.6264 71.9099ZM31.8464 72.3472C32.2797 72.7885 32.5944 73.1885 32.7664 73.4205C33.6037 72.6059 35.4104 70.5099 34.8691 67.9885C34.0451 64.1499 34.0411 61.3725 34.0411 61.3725C33.8091 61.3259 31.6264 63.9912 31.2971 67.3725C31.1064 69.3179 31.4877 71.1445 31.8464 72.3472Z" fill="#ffffff"/>
<path d="M32.3627 73.7841C32.3627 73.7841 32.1107 73.2361 31.8467 72.3481C32.28 72.7881 32.5947 73.1881 32.7667 73.4201C32.524 73.6548 32.3627 73.7841 32.3627 73.7841Z" fill="#ffffff"/>
<path d="M29.601 66.0663C29.601 66.0663 29.1103 64.7983 29.317 63.4569C29.525 62.1156 30.4583 61.1343 30.5503 61.1623C30.5503 61.1623 30.4903 62.2743 30.7343 63.8449C30.941 65.1729 29.601 66.0663 29.601 66.0663ZM29.4423 67.6063C30.229 66.9249 31.6823 65.3583 31.3597 63.2889C30.8437 59.9756 30.9717 57.6276 30.9717 57.6276C30.7783 57.5689 28.8077 59.6396 28.369 62.4716C28.1663 63.7809 28.2783 65.0569 28.4583 66.0503C28.9797 66.7249 29.3157 67.3529 29.4423 67.6063Z" fill="#ffffff"/>
<path d="M28.4587 66.0508C28.9801 66.7255 29.3161 67.3521 29.4427 67.6068C29.1627 67.8481 28.9667 67.9801 28.9667 67.9801C28.9667 67.9801 28.6681 67.2055 28.4587 66.0508Z" fill="#ffffff"/>
<path d="M27.0459 59.9184C27.0459 59.9184 26.7019 58.8277 26.9553 57.7704C27.2099 56.7131 28.0593 56.0424 28.1353 56.0771C28.1353 56.0771 28.0206 56.9691 28.1379 58.2717C28.2366 59.3744 27.0459 59.9184 27.0459 59.9184ZM29.0873 57.8477C28.8393 55.0984 29.0833 53.2157 29.0833 53.2157C28.9219 53.1424 27.1273 54.5571 26.5913 56.7891C26.2899 58.0397 26.3859 59.3131 26.5286 60.1904C26.8286 60.6397 27.0179 61.0184 27.0859 61.1611C27.7486 60.7677 29.2499 59.6677 29.0873 57.8477Z" fill="#ffffff"/>
<path d="M27.086 61.1605C26.902 61.2699 26.782 61.3245 26.782 61.3245C26.782 61.3245 26.6407 60.8792 26.5287 60.1899C26.8287 60.6405 27.018 61.0179 27.086 61.1605Z" fill="#ffffff"/>
<path d="M23.8777 53.4941C23.4871 52.3808 23.6631 51.0715 23.7284 51.0341C23.7284 51.0341 23.8697 51.5435 24.6164 52.5381C25.2484 53.3808 25.0457 55.2261 25.0457 55.2261C25.0457 55.2261 24.2684 54.6075 23.8777 53.4941ZM25.7924 57.5581C25.7924 57.5581 26.2204 53.6621 24.8857 51.8835C23.3097 49.7835 23.0097 48.7075 23.0097 48.7075C22.8724 48.7875 22.4991 51.5501 23.3257 53.9021C24.1511 56.2541 25.7924 57.5581 25.7924 57.5581Z" fill="#ffffff"/>
<path d="M18.9938 24.2996H19.5711C19.6431 24.8276 19.7818 25.3036 19.9844 25.7249C20.1871 26.1476 20.4418 26.5063 20.7498 26.7983C21.0564 27.0929 21.4098 27.3183 21.8111 27.4769C22.2111 27.6356 22.6458 27.7143 23.1138 27.7143C23.8831 27.7143 24.4924 27.5089 24.9391 27.0983C25.3858 26.6876 25.6098 26.1303 25.6098 25.4263C25.6098 25.1329 25.5658 24.8623 25.4778 24.6156C25.3884 24.3689 25.2404 24.1329 25.0324 23.9036C24.8244 23.6743 24.5471 23.4489 24.1978 23.2263C23.8498 23.0023 23.4098 22.7623 22.8791 22.5036C22.2338 22.1863 21.6938 21.8823 21.2564 21.5876C20.8204 21.2956 20.4711 20.9903 20.2111 20.6729C19.9511 20.3556 19.7658 20.0183 19.6564 19.6609C19.5484 19.3023 19.4938 18.8943 19.4938 18.4369C19.4938 17.8969 19.5791 17.3983 19.7511 16.9409C19.9218 16.4836 20.1644 16.0863 20.4764 15.7516C20.7884 15.4183 21.1578 15.1596 21.5844 14.9783C22.0111 14.7956 22.4791 14.7049 22.9884 14.7049C23.4471 14.7049 23.8724 14.7876 24.2684 14.9516C24.6631 15.1156 25.0644 15.3796 25.4698 15.7436L25.8751 14.9516H26.2338L26.4058 18.4543H25.8284C25.5791 17.4929 25.2178 16.7769 24.7444 16.3076C24.2711 15.8369 23.7018 15.6036 23.0351 15.6036C22.4004 15.6036 21.8964 15.7796 21.5218 16.1316C21.1471 16.4836 20.9604 16.9583 20.9604 17.5569C20.9604 17.8383 21.0018 18.0943 21.0844 18.3223C21.1684 18.5516 21.3031 18.7689 21.4898 18.9743C21.6778 19.1796 21.9218 19.3849 22.2244 19.5903C22.5258 19.7956 22.9004 20.0103 23.3471 20.2329C24.1164 20.6209 24.7564 20.9809 25.2671 21.3156C25.7764 21.6503 26.1831 21.9849 26.4844 22.3183C26.7858 22.6529 26.9991 23.0049 27.1231 23.3743C27.2484 23.7449 27.3111 24.1583 27.3111 24.6156C27.3111 25.2036 27.2071 25.7436 26.9991 26.2356C26.7911 26.7289 26.4991 27.1516 26.1244 27.5036C25.7511 27.8556 25.3031 28.1276 24.7831 28.3223C24.2631 28.5156 23.6911 28.6129 23.0671 28.6129C22.4738 28.6129 21.9404 28.5183 21.4671 28.3303C20.9938 28.1423 20.5124 27.8263 20.0231 27.3796L19.5871 28.2423H19.2271L18.9938 24.2996Z" fill="#ffffff"/>
<path d="M40.1538 14.8811H40.5911L40.7311 18.9304H40.1538C39.9244 17.8971 39.4831 17.0877 38.8271 16.5011C38.1724 15.9144 37.3818 15.6211 36.4551 15.6211C35.8204 15.6211 35.2538 15.7611 34.7551 16.0424C34.2551 16.3251 33.8338 16.7291 33.4911 17.2571C33.1471 17.7864 32.8844 18.4317 32.7031 19.1944C32.5204 19.9571 32.4298 20.8197 32.4298 21.7811C32.4298 23.6717 32.7778 25.1237 33.4751 26.1397C34.1724 27.1544 35.1818 27.6624 36.5018 27.6624C38.5098 27.6624 39.8004 26.4584 40.3724 24.0531H41.0124V28.4371H40.4658L40.1071 27.0451C39.0151 28.0904 37.6938 28.6131 36.1431 28.6131C35.2591 28.6131 34.4604 28.4544 33.7484 28.1371C33.0351 27.8211 32.4271 27.3717 31.9218 26.7904C31.4178 26.2091 31.0271 25.5024 30.7524 24.6691C30.4764 23.8357 30.3378 22.9091 30.3378 21.8877C30.3378 20.8197 30.4844 19.8451 30.7751 18.9651C31.0658 18.0851 31.4751 17.3277 32.0004 16.6944C32.5258 16.0611 33.1551 15.5704 33.8884 15.2237C34.6218 14.8784 35.4311 14.7051 36.3151 14.7051C36.9391 14.7051 37.5271 14.8051 38.0791 15.0037C38.6298 15.2037 39.2284 15.5264 39.8724 15.9731L40.1538 14.8811Z" fill="#ffffff"/>
<path d="M128.76 21.3941H129.868C130.908 21.3941 131.682 21.1688 132.186 20.7168C132.691 20.2648 132.943 19.5221 132.943 18.4888C132.943 17.4915 132.743 16.7795 132.342 16.3501C131.942 15.9221 131.314 15.7075 130.462 15.7075H129.026C128.848 15.7075 128.76 15.8075 128.76 16.0075V21.3941ZM134.971 18.2781C134.971 18.9008 134.883 19.4581 134.706 19.9501C134.53 20.4435 134.251 20.8608 133.871 21.1995C133.491 21.5408 132.998 21.8048 132.388 21.9928C131.78 22.1808 131.039 22.2741 130.164 22.2741H128.76V25.6715C128.76 26.1061 128.784 26.4608 128.831 26.7368C128.878 27.0128 128.976 27.2275 129.127 27.3795C129.278 27.5328 129.496 27.6341 129.783 27.6875C130.068 27.7408 130.446 27.7675 130.914 27.7675V28.4355H125.406V27.7675C125.77 27.7555 126.063 27.7195 126.287 27.6608C126.511 27.6035 126.686 27.5035 126.81 27.3621C126.935 27.2208 127.018 27.0221 127.059 26.7635C127.102 26.5048 127.123 26.1715 127.123 25.7595V17.5568C127.123 17.1448 127.104 16.8141 127.068 16.5621C127.031 16.3088 126.959 16.1101 126.85 15.9635C126.74 15.8168 126.582 15.7168 126.374 15.6635C126.164 15.6115 125.894 15.5728 125.562 15.5488V14.8808H130.462C131.896 14.8808 133.007 15.1795 133.792 15.7781C134.578 16.3768 134.971 17.2101 134.971 18.2781Z" fill="#ffffff"/>
<path d="M140.729 21.1301H141.837C142.877 21.1301 143.65 20.9155 144.154 20.4875C144.66 20.0595 144.912 19.3515 144.912 18.3661C144.912 17.4155 144.712 16.7355 144.31 16.3235C143.91 15.9128 143.282 15.7075 142.43 15.7075H140.994C140.817 15.7075 140.729 15.8075 140.729 16.0075V21.1301ZM146.94 18.2781C146.94 19.2168 146.69 19.9981 146.192 20.6195C145.692 21.2421 144.896 21.6581 143.804 21.8688L147.252 26.5515C147.533 26.9395 147.842 27.2181 148.181 27.3875C148.518 27.5581 148.922 27.6848 149.39 27.7661V28.4355H146.378L142.554 22.9075C142.42 22.7088 142.292 22.5501 142.173 22.4328C142.053 22.3155 141.928 22.2248 141.798 22.1595C141.668 22.0955 141.517 22.0541 141.345 22.0368C141.174 22.0195 140.969 22.0101 140.729 22.0101V25.6715C140.729 26.1061 140.753 26.4608 140.8 26.7368C140.846 27.0128 140.945 27.2275 141.096 27.3795C141.246 27.5328 141.465 27.6341 141.752 27.6875C142.037 27.7408 142.414 27.7661 142.882 27.7661V28.4355H137.374V27.7661C137.738 27.7555 138.032 27.7195 138.256 27.6608C138.48 27.6035 138.654 27.5035 138.778 27.3621C138.904 27.2208 138.986 27.0221 139.028 26.7635C139.07 26.5048 139.092 26.1715 139.092 25.7595V17.5568C139.092 17.1448 139.073 16.8141 139.037 16.5621C139 16.3088 138.928 16.1101 138.818 15.9635C138.709 15.8168 138.55 15.7168 138.342 15.6635C138.133 15.6115 137.862 15.5728 137.53 15.5488V14.8808H142.43C143.865 14.8808 144.976 15.1795 145.761 15.7781C146.546 16.3768 146.94 17.2101 146.94 18.2781Z" fill="#ffffff"/>
<path d="M90.6145 40.9323C89.0465 45.0976 87.5079 50.6976 86.0265 57.4483C85.9225 57.9203 85.6012 58.2336 84.9919 58.2296C84.3852 58.2269 84.1465 57.8816 83.9719 57.4256C82.4239 53.3923 81.2212 45.2336 79.5225 41.2736C76.9412 35.2589 75.9772 29.4069 78.8025 23.4403C80.2665 20.3523 81.6599 17.2296 83.0559 14.1069C83.5079 12.5803 83.9639 11.0989 84.4452 9.85759C84.5732 9.52425 84.7599 9.27626 85.2092 9.27892C85.6585 9.28159 85.8359 9.53759 85.9652 9.87359C86.5679 11.4443 87.0999 13.4349 87.6519 15.3949C89.5639 20.0643 91.4879 24.7283 93.0492 29.5163C94.2932 33.3336 92.0079 37.2323 90.6145 40.9323ZM94.9425 28.2763C92.7759 21.8109 90.1052 15.5149 87.4505 9.21359C86.6852 6.56692 85.9465 3.88026 85.1092 1.75892C84.9292 1.30426 84.6839 0.960256 84.0612 0.956256C83.4359 0.95359 83.1785 1.28692 82.9985 1.73759C82.3332 3.41359 81.6985 5.41359 81.0719 7.47359C79.1345 11.6883 77.1985 15.9043 75.1679 20.0736C71.2452 28.1283 72.5825 36.0269 76.1665 44.1469C78.5252 49.4936 80.1932 57.7016 82.3425 63.1469C82.5852 63.7603 82.9172 64.2269 83.7585 64.2309C84.6039 64.2363 84.9532 63.7843 85.1945 63.1763C87.4225 57.5749 89.3865 49.3096 91.5639 43.6869C93.4959 38.6923 96.6705 33.4296 94.9425 28.2763Z" fill="#ffffff"/>
<path d="M92.8814 82.9205C89.5467 82.2605 87.5707 77.5072 87.776 75.5259C87.776 75.5259 88.4814 77.6765 89.22 78.5899C90.236 79.8485 93.4307 80.8579 96.0614 80.6539C98.1467 80.4912 99.78 78.4779 100.295 76.8539C101.485 79.4072 99.4974 84.2285 92.8814 82.9205ZM99.364 72.5152C99.4294 75.3792 98.252 77.5045 95.5147 77.9165C92.584 78.3579 89.2334 77.3832 88.244 75.0939C87.996 74.5205 87.8974 74.0592 87.2814 74.1672L87.264 74.1712C87.3547 79.3499 89.3654 82.5045 93.0827 83.5725C96.092 84.4379 99.0374 83.4965 100.468 81.2125C102.156 78.5179 101.785 75.2405 99.364 72.5152Z" fill="#ffffff"/>
<path d="M74.7053 82.8741C68.0893 84.1821 66.1013 79.3608 67.2906 76.8075C67.8066 78.4315 69.44 80.4448 71.524 80.6075C74.156 80.8115 77.3506 79.8021 78.3666 78.5448C79.1053 77.6301 79.8106 75.4795 79.8106 75.4795C80.016 77.4608 78.04 82.2155 74.7053 82.8741ZM80.436 74.1448C79.82 74.0368 79.7213 74.4981 79.4733 75.0715C78.484 77.3608 75.1346 78.3355 72.2026 77.8941C69.4653 77.4821 68.288 75.3555 68.3533 72.4915C65.932 75.2181 65.5613 78.4941 67.2493 81.1888C68.68 83.4728 71.6253 84.4141 74.6346 83.5501C78.352 82.4821 80.3626 79.3275 80.4533 74.1475L80.436 74.1448Z" fill="#ffffff"/>
<path d="M112.611 61.4885C112.833 60.9712 113.038 60.1339 113.173 59.6965C114.782 54.4339 109.399 49.4432 102.885 50.6045C98.4528 51.3939 93.9928 53.8112 91.4568 57.1805C90.9248 57.8872 90.2755 59.0565 89.3608 61.2565C91.0742 54.2632 94.4915 47.0232 101.774 43.9352C112.402 39.4259 118.294 46.5352 118.262 51.0672C118.251 52.5752 117.971 57.1632 112.611 61.4885ZM115.049 38.9152C109.81 35.9525 104.349 36.6205 99.6008 40.0859C92.5662 45.2205 89.5462 55.3219 88.2382 63.9672C89.5742 63.6499 90.1742 60.6992 90.6448 59.7419C92.8342 55.2805 97.5408 52.9779 102.138 51.9805C108.895 50.5152 113.527 55.3579 111.858 61.9979C111.719 62.5499 111.486 63.0779 111.257 63.7312C117.021 62.6232 121.665 57.4499 121.938 51.9899C122.223 46.2832 119.969 41.6992 115.049 38.9152Z" fill="#ffffff"/>
<path d="M76.334 57.212C73.798 53.8427 69.338 51.4253 64.906 50.6347C58.39 49.4733 53.0086 54.4653 54.618 59.7267C54.7526 60.164 54.958 61.0013 55.1793 61.5187C49.8193 57.1933 49.5393 52.6067 49.5286 51.0987C49.4966 46.5667 55.3886 39.4573 66.0166 43.9653C73.2993 47.0547 76.346 54.1707 78.43 61.288C77.5153 59.088 76.8646 57.9173 76.334 57.212ZM68.19 40.1173C63.442 36.6507 57.9806 35.9827 52.742 38.9467C47.822 41.7293 45.5673 46.3133 45.8526 52.0213C46.126 57.48 50.77 62.6533 56.534 63.7613C56.3046 63.108 56.0713 62.58 55.9326 62.028C54.2633 55.3893 58.8953 50.5453 65.6526 52.0107C70.25 53.008 74.9566 55.312 77.146 59.7733C77.6166 60.7307 78.2166 63.68 79.5526 63.9973C78.2446 55.352 75.2246 45.252 68.19 40.1173Z" fill="#ffffff"/>
<path d="M88.2132 86.6844C87.4839 86.5577 86.4586 85.7924 85.6319 85.1564C85.2119 86.2591 84.7946 88.3324 84.2466 89.8937C84.1959 90.0377 83.9279 90.0217 83.8719 89.8804C83.4666 88.8457 82.9786 87.6724 82.7546 87.0551C82.5906 86.6017 82.1252 85.7564 81.7999 85.1791C80.6186 86.7071 78.4172 86.7884 78.3026 86.5711C78.3026 86.5711 79.0132 86.2071 79.5412 85.8044C80.4532 85.1097 81.2292 82.9591 81.8359 81.5364C82.4786 80.0324 83.6226 77.3671 84.0559 77.3671C84.4746 77.3657 85.4492 80.2031 86.1946 82.2257C86.3652 82.6924 87.1199 84.1711 87.3572 84.6057C87.6932 85.2177 88.1706 86.1257 88.6412 86.4897C88.8586 86.6591 88.6319 86.7564 88.2132 86.6844ZM91.8932 87.3297C91.7786 86.7977 91.4146 87.0297 90.9572 86.8897C90.0839 86.6244 89.6559 86.2737 89.3092 85.7711C87.7812 82.1577 86.0866 78.7617 84.6026 75.2337C84.4972 74.8671 84.3892 74.5151 84.2786 74.1871C84.1879 73.9217 84.0639 73.7204 83.7506 73.7191C83.4359 73.7164 83.3052 73.9124 83.2159 74.1751C83.1172 74.4631 83.0199 74.7711 82.9239 75.0871C82.1892 76.6924 80.5266 80.3337 79.1186 83.5537C78.3039 85.0137 78.1799 85.7671 76.5959 86.2511C76.1386 86.3897 75.7746 86.1577 75.6599 86.6897L75.6559 86.7044C77.9106 87.8177 79.7079 87.4404 81.2439 86.5617C81.9532 88.7031 82.6986 90.9484 83.6252 93.7457C84.4279 91.8631 85.0119 90.7084 85.4199 89.4764C85.6852 88.6764 85.9666 87.7284 86.1412 86.9337C87.7346 87.9204 89.5146 88.5217 91.8959 87.3444L91.8932 87.3297Z" fill="#ffffff"/>
<path d="M142.226 55.7499C141.852 57.4112 141.416 59.0432 140.918 60.6405C140.427 62.2405 139.855 63.7952 139.234 65.3085C138.019 68.3379 136.499 71.1805 134.787 73.7499C133.93 75.0352 133.023 76.2565 132.066 77.4045C129.218 80.8192 125.86 83.6472 122.5 86.1632C120.234 87.8565 117.907 89.4259 115.594 91.0725C115.306 91.2779 115.018 91.4899 114.73 91.7005C112.71 93.1805 110.719 94.7725 108.858 96.5885C107.791 97.6312 107.052 98.7432 105.782 99.6605C101.807 102.533 96.0631 104.886 87.9738 107.79C88.0511 107.894 89.0444 108.001 89.1738 107.957C92.5471 106.842 95.9391 106.03 98.2964 105.245C100.051 104.659 105.612 102.353 106.627 101.311C107.644 100.265 108.678 99.2272 109.755 98.2925C110.818 97.3259 111.912 96.4152 113.014 95.5179L113.84 94.8445L114.675 94.1832C115.232 93.7432 115.791 93.3005 116.354 92.8659C118.596 91.1099 120.872 89.3899 123.128 87.6019C124.822 86.2605 126.499 84.8445 128.1 83.3165L128.502 82.9325C129.711 81.7779 130.859 80.5192 131.964 79.1952L132.687 78.2899C133.64 77.0685 134.539 75.7752 135.383 74.4219C137.87 70.3592 139.88 65.7272 141.227 60.8005C141.675 59.1605 142.059 57.4925 142.376 55.8045L142.226 55.7499Z" fill="#ffffff"/>
<path d="M111.677 101.189C110.043 102.265 108.246 99.7089 108.246 99.7089C108.246 99.7089 109.666 98.0316 111.511 97.8689C113.357 97.7063 115.077 99.3196 115.083 99.5356C115.083 99.5356 113.606 99.9183 111.677 101.189ZM112.786 96.2009C111.39 96.3236 110.11 96.8569 109.042 97.4916C107.906 98.9529 106.741 99.9049 106.106 100.368C106.95 101.448 110.171 105.162 113.135 103.21C117.209 100.526 120.329 99.7196 120.329 99.7196C120.314 99.2636 116.683 95.8569 112.786 96.2009Z" fill="#ffffff"/>
<path d="M120.184 94.0632C118.55 95.1392 116.753 92.5832 116.753 92.5832C116.753 92.5832 118.173 90.9059 120.018 90.7432C121.864 90.5805 123.584 92.1939 123.59 92.4099C123.59 92.4099 122.113 92.7925 120.184 94.0632ZM121.133 88.9112C117.236 89.2539 114.24 92.7952 114.24 92.7952C114.24 92.7952 118.034 98.1912 121.482 95.9205C125.556 93.2379 128.674 92.4312 128.674 92.4312C128.66 91.9739 125.029 88.5685 121.133 88.9112Z" fill="#ffffff"/>
<path d="M128.289 87.6627C126.934 88.584 125.437 86.3787 125.437 86.3787C125.437 86.3787 126.613 84.9373 128.146 84.8027C129.68 84.668 131.112 86.0613 131.117 86.248C131.117 86.248 129.89 86.5733 128.289 87.6627ZM129.06 82.948C127.692 83.068 126.458 83.6813 125.49 84.3493C124.593 85.6027 123.766 86.2827 123.766 86.2827C123.766 86.2827 123.71 86.1653 123.624 85.956C123.44 86.152 123.338 86.276 123.338 86.276C123.338 86.276 126.5 90.9333 129.361 88.9867C132.741 86.6867 135.332 86 135.332 86C135.318 85.6067 132.297 82.6627 129.06 82.948Z" fill="#ffffff"/>
<path d="M134.431 80.6637C133.166 81.5251 131.769 79.4651 131.769 79.4651C131.769 79.4651 132.867 78.1197 134.298 77.9931C135.73 77.8677 137.066 79.1691 137.071 79.3424C137.071 79.3424 135.926 79.6464 134.431 80.6637ZM135.474 76.1757C134.145 76.2931 132.953 76.9077 132.033 77.5597C131.479 79.0157 130.899 79.9237 130.899 79.9237C130.899 79.9237 130.631 79.6264 130.274 79.1197C130.182 79.2224 130.133 79.2824 130.133 79.2824C130.133 79.2824 133.085 83.6304 135.755 81.8131C138.911 79.6664 141.33 79.0251 141.33 79.0251C141.317 78.6584 138.497 75.9104 135.474 76.1757Z" fill="#ffffff"/>
<path d="M138.929 74.0177C137.921 74.895 136.604 73.327 136.604 73.327C136.604 73.327 137.438 72.0617 138.636 71.7844C139.833 71.5057 141.048 72.443 141.064 72.5884C141.064 72.5884 140.12 72.9817 138.929 74.0177ZM139.166 70.371C137.829 70.6804 136.706 71.575 135.945 72.347C135.681 73.2364 135.429 73.7844 135.429 73.7844C135.429 73.7844 135.268 73.655 135.025 73.4204C134.929 73.551 134.877 73.6284 134.877 73.6284C134.877 73.6284 137.658 76.9377 139.786 75.087C142.3 72.899 144.293 72.0697 144.293 72.0697C144.258 71.7617 141.694 69.7844 139.166 70.371Z" fill="#ffffff"/>
<path d="M141.587 67.2548C140.842 68.1828 139.57 67.1295 139.57 67.1295C139.57 67.1295 140.127 65.9108 141.097 65.4468C142.066 64.9815 143.183 65.5281 143.213 65.6468C143.213 65.6468 142.467 66.1588 141.587 67.2548ZM141.514 64.1721C140.607 64.6068 139.871 65.3535 139.333 66.0508C139.123 67.2055 138.825 67.9801 138.825 67.9801C138.825 67.9801 138.629 67.8481 138.349 67.6068C138.31 67.6828 138.291 67.7255 138.291 67.7255C138.291 67.7255 140.978 69.9481 142.55 67.9895C144.407 65.6735 145.982 64.5935 145.982 64.5935C145.918 64.3428 143.561 63.1908 141.514 64.1721Z" fill="#ffffff"/>
<path d="M143.172 59.2877C143.997 58.9104 144.949 59.4384 144.974 59.5451C144.974 59.5451 144.341 59.9731 143.593 60.9157C142.961 61.7144 141.874 60.7291 141.874 60.7291C141.874 60.7291 142.346 59.6651 143.172 59.2877ZM140.705 61.1611C140.686 61.1997 140.677 61.2224 140.677 61.2224C140.677 61.2224 142.97 63.3024 144.306 61.6171C145.884 59.6251 147.221 58.7211 147.221 58.7211C147.168 58.4971 145.156 57.3824 143.414 58.1784C142.458 58.6157 141.728 59.4904 141.262 60.1904C141.15 60.8797 141.01 61.3251 141.01 61.3251C141.01 61.3251 140.89 61.2704 140.705 61.1611Z" fill="#ffffff"/>
<path d="M106.988 93.7219C108.648 91.8979 109.512 90.2605 109.512 90.2605C109.657 90.3579 110.065 93.1019 109.201 95.2752C108.338 97.4499 106.606 98.4885 106.606 98.4885C106.606 98.4885 105.584 95.2659 106.988 93.7219ZM109.042 97.4912C109.794 96.5245 110.533 95.3352 111.097 93.9165C112.92 89.3285 112.06 83.5339 111.752 83.3299C111.752 83.3299 109.926 86.7872 106.422 90.6365C103.457 93.8952 105.618 100.699 105.618 100.699C105.618 100.699 105.801 100.589 106.106 100.367C105.968 100.191 105.893 100.085 105.893 100.085C105.893 100.085 107.128 98.6272 109.042 97.4912Z" fill="#ffffff"/>
<path d="M105.893 100.085C105.893 100.085 105.968 100.192 106.105 100.368C106.741 99.9037 107.906 98.9531 109.042 97.4917C107.128 98.6277 105.893 100.085 105.893 100.085Z" fill="#ffffff"/>
<path d="M115.932 85.4732C117.746 83.9332 118.756 82.4478 118.756 82.4478C118.89 82.5678 119.044 85.3572 117.986 87.3745C116.929 89.3918 115.116 90.1412 115.116 90.1412C115.116 90.1412 114.396 86.7772 115.932 85.4732ZM119.981 86.4785C122.213 82.2198 121.892 76.3305 121.605 76.0772C121.605 76.0772 119.476 79.2118 115.644 82.4638C112.401 85.2172 113.921 92.3212 113.921 92.3212C113.921 92.3212 117.749 90.7372 119.981 86.4785Z" fill="#ffffff"/>
<path d="M123.855 80.6428C124.965 79.0455 125.478 77.6975 125.478 77.6975C125.599 77.7495 126.169 79.7561 125.705 81.5068C125.242 83.2588 124.005 84.2761 124.005 84.2761C124.005 84.2761 122.917 81.9948 123.855 80.6428ZM127.355 80.4375C128.334 76.7401 127.133 72.5055 126.877 72.3935C126.877 72.3935 125.791 75.2401 123.451 78.6121C121.779 81.0215 123.154 84.8268 123.623 85.9561C123.973 85.5841 124.625 84.9455 125.49 84.3495C126.187 83.3748 126.929 82.0548 127.355 80.4375Z" fill="#ffffff"/>
<path d="M125.49 84.3496C124.625 84.9456 123.973 85.5843 123.623 85.9563C123.71 86.1643 123.766 86.2816 123.766 86.2816C123.766 86.2816 124.593 85.6029 125.49 84.3496Z" fill="#ffffff"/>
<path d="M129.947 73.8455C130.651 71.8188 130.834 70.2855 130.834 70.2855C130.964 70.2868 131.996 72.0081 131.96 73.9135C131.923 75.8201 130.956 77.3335 130.956 77.3335C130.956 77.3335 129.351 75.5601 129.947 73.8455ZM133.019 72.7055C133.096 68.6815 130.916 65.0468 130.639 65.0455C130.639 65.0455 130.255 68.2828 128.768 72.5601C127.864 75.1615 129.36 77.8268 130.274 79.1201C130.538 78.8268 131.162 78.1775 132.032 77.5601C132.518 76.2828 132.983 74.5841 133.019 72.7055Z" fill="#ffffff"/>
<path d="M132.033 77.5597C131.162 78.1771 130.538 78.8264 130.274 79.1197C130.631 79.6264 130.899 79.9237 130.899 79.9237C130.899 79.9237 131.479 79.0157 132.033 77.5597Z" fill="#ffffff"/>
<path d="M133.978 69.1648C134.368 67.3461 134.37 66.0315 134.37 66.0315C134.48 66.0088 135.514 67.2715 135.67 68.8728C135.826 70.4755 135.166 71.9101 135.166 71.9101C135.166 71.9101 133.647 70.7035 133.978 69.1648ZM136.495 67.3728C136.164 63.9901 133.982 61.3261 133.751 61.3728C133.751 61.3728 133.747 64.1501 132.922 67.9888C132.38 70.5101 134.187 72.6061 135.026 73.4195C135.196 73.1888 135.512 72.7875 135.946 72.3475C136.303 71.1448 136.684 69.3181 136.495 67.3728Z" fill="#ffffff"/>
<path d="M135.429 73.7841C135.429 73.7841 135.681 73.2361 135.945 72.3481C135.512 72.7881 135.197 73.1881 135.025 73.4201C135.268 73.6548 135.429 73.7841 135.429 73.7841Z" fill="#ffffff"/>
<path d="M137.057 63.8447C137.301 62.2753 137.241 61.1633 137.241 61.1633C137.333 61.1353 138.267 62.1153 138.475 63.4567C138.681 64.798 138.191 66.066 138.191 66.066C138.191 66.066 136.851 65.1727 137.057 63.8447ZM139.333 66.0513C139.513 65.0567 139.625 63.7807 139.423 62.4713C138.984 59.6393 137.013 57.5687 136.82 57.6273C136.82 57.6273 136.948 59.9753 136.432 63.29C136.109 65.358 137.563 66.9247 138.349 67.606C138.476 67.3527 138.812 66.7247 139.333 66.0513Z" fill="#ffffff"/>
<path d="M139.333 66.0508C138.812 66.7255 138.476 67.3521 138.349 67.6068C138.629 67.8481 138.825 67.9801 138.825 67.9801C138.825 67.9801 139.124 67.2055 139.333 66.0508Z" fill="#ffffff"/>
<path d="M139.654 58.2715C139.771 56.9688 139.655 56.0781 139.655 56.0781C139.733 56.0421 140.582 56.7128 140.837 57.7701C141.09 58.8275 140.746 59.9181 140.746 59.9181C140.746 59.9181 139.555 59.3741 139.654 58.2715ZM140.706 61.1608C140.774 61.0181 140.963 60.6408 141.262 60.1901C141.405 59.3128 141.502 58.0395 141.201 56.7888C140.665 54.5568 138.87 53.1421 138.709 53.2155C138.709 53.2155 138.953 55.0981 138.705 57.8475C138.541 59.6675 140.043 60.7675 140.706 61.1608Z" fill="#ffffff"/>
<path d="M140.706 61.1605C140.89 61.2699 141.01 61.3245 141.01 61.3245C141.01 61.3245 141.151 60.8792 141.263 60.1899C140.963 60.6405 140.774 61.0179 140.706 61.1605Z" fill="#ffffff"/>
<path d="M142.746 55.226C142.746 55.226 142.543 53.3807 143.175 52.538C143.922 51.5433 144.064 51.034 144.064 51.034C144.128 51.0713 144.306 52.3807 143.914 53.494C143.523 54.6087 142.746 55.226 142.746 55.226ZM144.466 53.902C145.292 51.5513 144.919 48.7873 144.783 48.7073C144.783 48.7073 144.482 49.7833 142.906 51.8847C141.571 53.662 142 57.558 142 57.558C142 57.558 143.64 56.254 144.466 53.902Z" fill="#ffffff"/>
<path d="M25.5658 55.7499C25.9392 57.4112 26.3752 59.0432 26.8738 60.6405C27.3645 62.2405 27.9365 63.7952 28.5578 65.3085C29.7725 68.3379 31.2925 71.1805 33.0045 73.7499C33.8618 75.0352 34.7685 76.2565 35.7258 77.4045C38.5738 80.8192 41.9312 83.6472 45.2912 86.1632C47.5578 87.8565 49.8845 89.4259 52.1978 91.0725C52.4858 91.2779 52.7738 91.4899 53.0618 91.7005C55.0818 93.1805 57.0725 94.7725 58.9338 96.5885C60.0005 97.6312 60.7392 98.7432 62.0098 99.6605C65.9845 102.533 71.7285 104.886 79.8178 107.79C79.7405 107.894 78.7472 108.001 78.6178 107.957C75.2445 106.842 71.8525 106.03 69.4952 105.245C67.7405 104.659 62.1792 102.353 61.1645 101.311C60.1472 100.265 59.1138 99.2272 58.0365 98.2925C56.9738 97.3259 55.8792 96.4152 54.7778 95.5179L53.9512 94.8445L53.1165 94.1832C52.5592 93.7432 52.0005 93.3005 51.4378 92.8659C49.1952 91.1099 46.9192 89.3899 44.6632 87.6019C42.9698 86.2605 41.2925 84.8445 39.6912 83.3165L39.2898 82.9325C38.0805 81.7779 36.9325 80.5192 35.8272 79.1952L35.1045 78.2899C34.1512 77.0685 33.2525 75.7752 32.4085 74.4219C29.9218 70.3592 27.9112 65.7272 26.5645 60.8005C26.1165 59.1605 25.7325 57.4925 25.4152 55.8045L25.5658 55.7499Z" fill="#ffffff"/>
<path d="M52.708 99.5359C52.7146 99.3199 54.4346 97.7065 56.28 97.8692C58.1266 98.0319 59.5453 99.7092 59.5453 99.7092C59.5453 99.7092 57.748 102.264 56.1146 101.189C54.1853 99.9185 52.708 99.5359 52.708 99.5359ZM47.4626 99.7199C47.4626 99.7199 50.5826 100.527 54.656 103.209C57.62 105.161 60.8413 101.448 61.6866 100.368C61.0506 99.9039 59.8853 98.9532 58.7493 97.4919C57.6813 96.8572 56.4013 96.3239 55.0053 96.2012C51.108 95.8572 47.4786 99.2639 47.4626 99.7199Z" fill="#ffffff"/>
<path d="M44.2009 92.4101C44.2076 92.1941 45.9276 90.5808 47.7729 90.7435C49.6196 90.9061 51.0383 92.5835 51.0383 92.5835C51.0383 92.5835 49.2409 95.1381 47.6076 94.0635C45.6783 92.7928 44.2009 92.4101 44.2009 92.4101ZM39.1169 92.4301C39.1169 92.4301 42.2356 93.2381 46.3089 95.9208C49.7569 98.1915 53.5516 92.7955 53.5516 92.7955C53.5516 92.7955 50.5556 89.2541 46.6583 88.9115C42.7623 88.5688 39.1316 91.9741 39.1169 92.4301Z" fill="#ffffff"/>
<path d="M36.6744 86.248C36.6811 86.0613 38.1117 84.668 39.6451 84.8027C41.1784 84.9373 42.3557 86.3787 42.3557 86.3787C42.3557 86.3787 40.8584 88.584 39.5024 87.6627C37.9011 86.5733 36.6744 86.248 36.6744 86.248ZM32.4597 86C32.4597 86 35.0504 86.6867 38.4304 88.9867C41.2917 90.9333 44.4531 86.276 44.4531 86.276C44.4531 86.276 44.3531 86.152 44.1677 85.956C44.0811 86.1653 44.0251 86.2827 44.0251 86.2827C44.0251 86.2827 43.1984 85.6027 42.301 84.3493C41.333 83.6813 40.0997 83.068 38.7317 82.948C35.4944 82.6627 32.4731 85.6067 32.4597 86Z" fill="#ffffff"/>
<path d="M30.7201 79.3429C30.7254 79.1696 32.0614 77.8669 33.4934 77.9936C34.9254 78.1189 36.0241 79.4643 36.0241 79.4643C36.0241 79.4643 34.6254 81.5243 33.3601 80.6643C31.8654 79.6469 30.7201 79.3429 30.7201 79.3429ZM26.4628 79.0243C26.4628 79.0243 28.8814 79.6656 32.0374 81.8136C34.7081 83.6309 37.6588 79.2829 37.6588 79.2829C37.6588 79.2829 37.6094 79.2216 37.5188 79.1203C37.1601 79.6269 36.8921 79.9229 36.8921 79.9229C36.8921 79.9229 36.3121 79.0163 35.7588 77.5603C34.8401 76.9083 33.6468 76.2923 32.3174 76.1763C29.2961 75.9096 26.4748 78.6576 26.4628 79.0243Z" fill="#ffffff"/>
<path d="M26.7275 72.5884C26.7435 72.4431 27.9582 71.5057 29.1555 71.7844C30.3528 72.0617 31.1875 73.3271 31.1875 73.3271C31.1875 73.3271 29.8702 74.8951 28.8622 74.0177C27.6715 72.9817 26.7275 72.5884 26.7275 72.5884ZM23.4982 72.0697C23.4982 72.0697 25.4928 72.8991 28.0062 75.0871C30.1328 76.9377 32.9142 73.6284 32.9142 73.6284C32.9142 73.6284 32.8622 73.5497 32.7662 73.4204C32.5248 73.6551 32.3622 73.7844 32.3622 73.7844C32.3622 73.7844 32.1102 73.2364 31.8462 72.3471C31.0848 71.5751 29.9622 70.6804 28.6248 70.3711C26.0968 69.7844 23.5328 71.7617 23.4982 72.0697Z" fill="#ffffff"/>
<path d="M24.5789 65.6463C24.6082 65.5276 25.7256 64.9823 26.6949 65.4463C27.6642 65.9116 28.2216 67.1303 28.2216 67.1303C28.2216 67.1303 26.9496 68.1823 26.2042 67.2543C25.3242 66.1583 24.5789 65.6463 24.5789 65.6463ZM21.8096 64.5929C21.8096 64.5929 23.3842 65.6743 25.2416 67.9889C26.8136 69.9476 29.5002 67.7249 29.5002 67.7249C29.5002 67.7249 29.4816 67.6823 29.4429 67.6063C29.1629 67.8489 28.9669 67.9796 28.9669 67.9796C28.9669 67.9796 28.6682 67.2063 28.4589 66.0503C27.9202 65.3529 27.1842 64.6063 26.2776 64.1716C24.2309 63.1903 21.8736 64.3436 21.8096 64.5929Z" fill="#ffffff"/>
<path d="M25.9169 60.7293C25.9169 60.7293 24.8302 61.7147 24.1982 60.916C23.4502 59.9733 22.8169 59.5453 22.8169 59.5453C22.8422 59.4387 23.7955 58.9107 24.6195 59.288C25.4449 59.6653 25.9169 60.7293 25.9169 60.7293ZM26.7822 61.3253C26.7822 61.3253 26.6409 60.8787 26.5289 60.1907C26.0635 59.4907 25.3329 58.616 24.3769 58.1787C22.6355 57.3813 20.6249 58.496 20.5702 58.7213C20.5702 58.7213 21.9089 59.6253 23.4862 61.616C24.8209 63.3013 27.1142 61.2213 27.1142 61.2213C27.1142 61.2213 27.1049 61.2 27.0862 61.16C26.9009 61.2707 26.7822 61.3253 26.7822 61.3253Z" fill="#ffffff"/>
<path d="M61.1852 98.488C61.1852 98.488 59.4545 97.4493 58.5905 95.276C57.7265 93.1013 58.1345 90.3573 58.2798 90.2613C58.2798 90.2613 59.1452 91.8987 60.8038 93.7213C62.2092 95.2653 61.1852 98.488 61.1852 98.488ZM61.8985 100.085C61.8985 100.085 61.8238 100.191 61.6865 100.367C61.9905 100.589 62.1732 100.699 62.1732 100.699C62.1732 100.699 64.3345 93.8947 61.3692 90.6373C57.8652 86.7867 56.0398 83.3307 56.0398 83.3307C55.7332 83.5347 54.8718 89.328 56.6958 93.9173C57.2585 95.336 57.9985 96.5253 58.7492 97.492C60.6638 98.6267 61.8985 100.085 61.8985 100.085Z" fill="#ffffff"/>
<path d="M61.8985 100.085C61.8985 100.085 61.8238 100.192 61.6865 100.368C61.0505 99.9037 59.8851 98.9531 58.7491 97.4917C60.6638 98.6277 61.8985 100.085 61.8985 100.085Z" fill="#ffffff"/>
<path d="M52.6764 90.1419C52.6764 90.1419 50.8631 89.3925 49.8057 87.3752C48.7484 85.3579 48.9004 82.5672 49.0364 82.4485C49.0364 82.4485 50.0457 83.9325 51.8604 85.4739C53.3964 86.7765 52.6764 90.1419 52.6764 90.1419ZM53.8711 92.3205C53.8711 92.3205 55.3897 85.2165 52.1471 82.4645C48.3164 79.2125 46.1857 76.0779 46.1857 76.0779C45.9004 76.3299 45.5777 82.2205 47.8097 86.4792C50.0417 90.7379 53.8711 92.3205 53.8711 92.3205Z" fill="#ffffff"/>
<path d="M43.7866 84.2756C43.7866 84.2756 42.5493 83.2583 42.0866 81.5076C41.6226 79.7556 42.192 77.7503 42.3133 77.6969C42.3133 77.6969 42.828 79.0449 43.936 80.6423C44.8746 81.9943 43.7866 84.2756 43.7866 84.2756ZM42.3013 84.3503C43.1666 84.9463 43.8186 85.5849 44.168 85.9556C44.6373 84.8263 46.0133 81.0209 44.3413 78.6129C42 75.2409 40.9146 72.3943 40.9146 72.3943C40.66 72.5049 39.4573 76.7396 40.436 80.4369C40.864 82.0543 41.604 83.3756 42.3013 84.3503Z" fill="#ffffff"/>
<path d="M42.3015 84.3496C43.1668 84.9456 43.8188 85.5843 44.1682 85.9563C44.0815 86.1643 44.0255 86.2816 44.0255 86.2816C44.0255 86.2816 43.1988 85.6029 42.3015 84.3496Z" fill="#ffffff"/>
<path d="M36.8354 77.3329C36.8354 77.3329 35.8688 75.8196 35.8314 73.9143C35.7954 72.0076 36.8274 70.2863 36.9581 70.2863C36.9581 70.2863 37.1408 71.8196 37.8448 73.8449C38.4408 75.5596 36.8354 77.3329 36.8354 77.3329ZM35.7594 77.5596C36.6301 78.1769 37.2541 78.8263 37.5181 79.1196C38.4314 77.8263 39.9274 75.1623 39.0234 72.5609C37.5368 68.2823 37.1528 65.0463 37.1528 65.0463C36.8754 65.0476 34.6954 68.6809 34.7728 72.7049C34.8088 74.5849 35.2741 76.2836 35.7594 77.5596Z" fill="#ffffff"/>
<path d="M35.7592 77.5597C36.6298 78.1771 37.2538 78.8264 37.5178 79.1197C37.1605 79.6264 36.8925 79.9237 36.8925 79.9237C36.8925 79.9237 36.3125 79.0157 35.7592 77.5597Z" fill="#ffffff"/>
<path d="M32.6264 71.9099C32.6264 71.9099 31.9651 70.4752 32.1211 68.8739C32.2784 67.2712 33.3117 66.0085 33.4211 66.0312C33.4211 66.0312 33.4237 67.3459 33.8144 69.1645C34.1437 70.7032 32.6264 71.9099 32.6264 71.9099ZM31.8464 72.3472C32.2797 72.7885 32.5944 73.1885 32.7664 73.4205C33.6037 72.6059 35.4104 70.5099 34.8691 67.9885C34.0451 64.1499 34.0411 61.3725 34.0411 61.3725C33.8091 61.3259 31.6264 63.9912 31.2971 67.3725C31.1064 69.3179 31.4877 71.1445 31.8464 72.3472Z" fill="#ffffff"/>
<path d="M32.3627 73.7841C32.3627 73.7841 32.1107 73.2361 31.8467 72.3481C32.28 72.7881 32.5947 73.1881 32.7667 73.4201C32.524 73.6548 32.3627 73.7841 32.3627 73.7841Z" fill="#ffffff"/>
<path d="M29.601 66.0663C29.601 66.0663 29.1103 64.7983 29.317 63.4569C29.525 62.1156 30.4583 61.1343 30.5503 61.1623C30.5503 61.1623 30.4903 62.2743 30.7343 63.8449C30.941 65.1729 29.601 66.0663 29.601 66.0663ZM29.4423 67.6063C30.229 66.9249 31.6823 65.3583 31.3597 63.2889C30.8437 59.9756 30.9717 57.6276 30.9717 57.6276C30.7783 57.5689 28.8077 59.6396 28.369 62.4716C28.1663 63.7809 28.2783 65.0569 28.4583 66.0503C28.9797 66.7249 29.3157 67.3529 29.4423 67.6063Z" fill="#ffffff"/>
<path d="M28.4587 66.0508C28.9801 66.7255 29.3161 67.3521 29.4427 67.6068C29.1627 67.8481 28.9667 67.9801 28.9667 67.9801C28.9667 67.9801 28.6681 67.2055 28.4587 66.0508Z" fill="#ffffff"/>
<path d="M27.0459 59.9184C27.0459 59.9184 26.7019 58.8277 26.9553 57.7704C27.2099 56.7131 28.0593 56.0424 28.1353 56.0771C28.1353 56.0771 28.0206 56.9691 28.1379 58.2717C28.2366 59.3744 27.0459 59.9184 27.0459 59.9184ZM29.0873 57.8477C28.8393 55.0984 29.0833 53.2157 29.0833 53.2157C28.9219 53.1424 27.1273 54.5571 26.5913 56.7891C26.2899 58.0397 26.3859 59.3131 26.5286 60.1904C26.8286 60.6397 27.0179 61.0184 27.0859 61.1611C27.7486 60.7677 29.2499 59.6677 29.0873 57.8477Z" fill="#ffffff"/>
<path d="M27.086 61.1605C26.902 61.2699 26.782 61.3245 26.782 61.3245C26.782 61.3245 26.6407 60.8792 26.5287 60.1899C26.8287 60.6405 27.018 61.0179 27.086 61.1605Z" fill="#ffffff"/>
<path d="M23.8777 53.4941C23.4871 52.3808 23.6631 51.0715 23.7284 51.0341C23.7284 51.0341 23.8697 51.5435 24.6164 52.5381C25.2484 53.3808 25.0457 55.2261 25.0457 55.2261C25.0457 55.2261 24.2684 54.6075 23.8777 53.4941ZM25.7924 57.5581C25.7924 57.5581 26.2204 53.6621 24.8857 51.8835C23.3097 49.7835 23.0097 48.7075 23.0097 48.7075C22.8724 48.7875 22.4991 51.5501 23.3257 53.9021C24.1511 56.2541 25.7924 57.5581 25.7924 57.5581Z" fill="#ffffff"/>
<path d="M56.6991 156.2V148.443H58.5738V151.556H61.6311V148.443H63.5031V156.2H61.6311V153.083H58.5738V156.2H56.6991Z" fill="#ffffff"/>
<path d="M73.2811 152.321C73.2811 151.816 73.2091 151.389 73.0678 151.041C72.9238 150.692 72.7198 150.429 72.4544 150.249C72.1878 150.07 71.8664 149.981 71.4931 149.981C71.1224 149.981 70.8038 150.07 70.5344 150.249C70.2678 150.429 70.0624 150.692 69.9198 151.041C69.7771 151.389 69.7051 151.816 69.7051 152.321C69.7051 152.826 69.7771 153.253 69.9198 153.601C70.0624 153.95 70.2678 154.213 70.5344 154.393C70.8038 154.572 71.1224 154.662 71.4931 154.662C71.8664 154.662 72.1878 154.572 72.4544 154.393C72.7198 154.213 72.9238 153.95 73.0678 153.601C73.2091 153.253 73.2811 152.826 73.2811 152.321ZM75.1971 152.321C75.1971 153.174 75.0331 153.898 74.7051 154.492C74.3771 155.085 73.9331 155.536 73.3731 155.844C72.8144 156.152 72.1878 156.306 71.4931 156.306C70.7971 156.306 70.1691 156.15 69.6104 155.84C69.0531 155.529 68.6104 155.078 68.2838 154.486C67.9558 153.894 67.7931 153.172 67.7931 152.321C67.7931 151.468 67.9558 150.744 68.2838 150.15C68.6104 149.557 69.0531 149.106 69.6104 148.798C70.1691 148.49 70.7971 148.336 71.4931 148.336C72.1878 148.336 72.8144 148.49 73.3731 148.798C73.9331 149.106 74.3771 149.557 74.7051 150.15C75.0331 150.744 75.1971 151.468 75.1971 152.321Z" fill="#ffffff"/>
<path d="M78.8787 149.965V148.442H85.436V149.965H83.0827V156.199H81.2347V149.965H78.8787Z" fill="#ffffff"/>
<path d="M91.6405 147.704L92.4059 145.996H94.0459L92.9019 147.704H91.6405ZM89.5579 156.2V148.442H94.9659V149.965H91.4325V151.556H94.6899V153.082H91.4325V154.677H94.9659V156.2H89.5579Z" fill="#ffffff"/>
<path d="M101.215 156.2H99.3402V148.443H101.215V156.2Z" fill="#ffffff"/>
<path d="M109.782 150.768C109.757 150.491 109.645 150.274 109.448 150.119C109.25 149.963 108.968 149.886 108.601 149.886C108.358 149.886 108.156 149.918 107.994 149.98C107.833 150.044 107.712 150.13 107.632 150.24C107.55 150.35 107.509 150.475 107.506 150.616C107.501 150.732 107.525 150.835 107.577 150.923C107.628 151.012 107.704 151.09 107.804 151.156C107.904 151.223 108.024 151.282 108.165 151.332C108.308 151.383 108.466 151.427 108.644 151.464L109.31 151.616C109.693 151.7 110.032 151.811 110.326 151.95C110.621 152.088 110.868 152.254 111.069 152.446C111.269 152.638 111.421 152.859 111.525 153.108C111.629 153.359 111.682 153.639 111.685 153.95C111.682 154.44 111.558 154.86 111.313 155.211C111.068 155.563 110.716 155.831 110.257 156.019C109.8 156.206 109.248 156.298 108.601 156.298C107.952 156.298 107.386 156.202 106.904 156.007C106.421 155.812 106.046 155.518 105.778 155.12C105.512 154.724 105.373 154.223 105.365 153.616H107.161C107.177 153.867 107.244 154.075 107.362 154.242C107.481 154.408 107.644 154.535 107.853 154.62C108.061 154.707 108.304 154.75 108.578 154.75C108.83 154.75 109.045 154.715 109.224 154.647C109.402 154.579 109.538 154.484 109.636 154.363C109.732 154.242 109.78 154.103 109.782 153.946C109.78 153.799 109.734 153.674 109.646 153.57C109.558 153.464 109.421 153.374 109.24 153.296C109.056 153.219 108.822 153.148 108.54 153.083L107.73 152.894C107.058 152.739 106.529 152.49 106.144 152.146C105.756 151.8 105.565 151.334 105.566 150.746C105.565 150.266 105.693 149.846 105.953 149.484C106.213 149.123 106.573 148.842 107.032 148.639C107.492 148.438 108.017 148.336 108.605 148.336C109.205 148.336 109.728 148.438 110.17 148.642C110.614 148.844 110.958 149.13 111.202 149.495C111.448 149.862 111.573 150.286 111.578 150.768H109.782Z" fill="#ffffff"/>
</svg>
